<?xml version="1.0" encoding="utf-8"?>
<svg viewBox="0 0 303 102" fill="none" xmlns="http://www.w3.org/2000/svg">
  <defs>
    <clipPath id="clip0_42_426">
      <rect width="303" height="102" fill="white"/>
    </clipPath>
  </defs>
  <g clip-path="url(#clip0_42_426)" transform="matrix(1, 0, 0, 1, -1.4210854715202004e-14, 0)">
    <path d="M 54.18 52.293 C 54.18 57.029 53.67 61.074 52.652 64.427 C 51.633 67.786 50.34 70.597 48.774 72.86 C 47.207 75.122 45.444 76.905 43.483 78.206 C 41.521 79.507 39.625 80.483 37.794 81.134 C 35.962 81.785 34.29 82.201 32.776 82.383 C 31.263 82.564 30.138 82.655 29.402 82.655 L 7.53 82.655 L 7.53 25.131 L 24.932 25.131 C 29.797 25.131 34.072 25.899 37.758 27.435 C 41.445 28.965 44.501 31.005 46.928 33.555 C 49.36 36.105 51.176 39.006 52.378 42.26 C 53.579 45.513 54.18 48.857 54.18 52.293 Z M 26.266 75.788 C 32.644 75.788 37.246 73.757 40.073 69.694 C 42.894 65.638 44.304 59.758 44.304 52.055 C 44.304 49.663 44.015 47.295 43.438 44.95 C 42.867 42.611 41.757 40.492 40.108 38.593 C 38.459 36.694 36.224 35.158 33.404 33.985 C 30.583 32.813 26.923 32.227 22.424 32.227 L 16.938 32.227 L 16.938 75.788 L 26.266 75.788 Z M 83.798 38.162 C 87.355 38.162 90.494 38.877 93.215 40.308 C 95.929 41.738 98.164 43.637 99.919 46.006 C 101.668 48.374 102.923 51.106 103.682 54.201 C 104.436 57.302 104.58 60.517 104.115 63.847 L 73.375 63.847 C 73.375 65.512 73.687 67.045 74.311 68.446 C 74.941 69.852 75.792 71.063 76.864 72.077 C 77.936 73.091 79.217 73.886 80.707 74.46 C 82.196 75.035 83.804 75.322 85.53 75.322 C 86.101 75.322 86.819 75.254 87.685 75.12 C 88.545 74.991 89.46 74.756 90.432 74.416 C 91.398 74.082 92.364 73.654 93.329 73.132 C 94.295 72.611 95.146 71.986 95.882 71.259 L 99.327 76.491 C 97.602 78.625 95.591 80.237 93.294 81.327 C 90.992 82.424 88.062 82.972 84.505 82.972 C 81.631 82.972 78.94 82.386 76.431 81.213 C 73.922 80.041 71.779 78.44 70 76.412 C 68.222 74.384 66.812 72.016 65.769 69.307 C 64.721 66.599 64.197 63.686 64.197 60.567 C 64.197 57.495 64.721 54.593 65.769 51.862 C 66.812 49.13 68.21 46.75 69.965 44.722 C 71.714 42.693 73.79 41.093 76.193 39.921 C 78.601 38.748 81.136 38.162 83.798 38.162 Z M 95.326 56.971 C 95.326 55.57 95.067 54.192 94.548 52.838 C 94.024 51.484 93.303 50.261 92.384 49.171 C 91.472 48.075 90.361 47.201 89.054 46.551 C 87.747 45.9 86.336 45.551 84.823 45.504 C 83.203 45.504 81.714 45.815 80.353 46.436 C 78.993 47.064 77.815 47.896 76.82 48.934 C 75.83 49.977 75.062 51.214 74.514 52.644 C 73.961 54.075 73.684 55.517 73.684 56.971 L 95.326 56.971 Z M 138.945 48.151 C 137.485 47.735 135.709 47.5 133.619 47.448 C 131.734 47.448 129.864 47.67 128.009 48.116 C 126.154 48.556 124.676 49.297 123.575 50.341 L 123.575 67.047 L 123.575 67.197 L 123.575 82.655 L 114.088 82.655 L 114.088 38.628 L 122.559 38.628 L 123.575 43.157 C 124.364 42.377 125.189 41.676 126.048 41.055 C 126.914 40.428 127.921 39.918 129.069 39.525 C 130.218 39.138 131.575 38.839 133.142 38.628 C 134.714 38.423 136.649 38.32 138.945 38.32 L 138.945 48.151 Z M 206.662 81.169 L 206.662 82.655 L 197.255 82.655 L 197.255 58.694 C 197.255 56.924 197.243 55.244 197.219 53.656 C 197.19 52.067 197.019 50.648 196.707 49.4 C 196.395 48.151 195.885 47.178 195.179 46.48 C 194.472 45.777 193.386 45.425 191.919 45.425 C 191.66 45.425 191.204 45.463 190.55 45.54 C 189.896 45.616 189.125 45.771 188.236 46.006 C 187.346 46.24 186.366 46.618 185.294 47.14 C 184.222 47.662 183.165 48.339 182.123 49.171 C 182.123 51.199 182.135 52.811 182.158 54.007 C 182.188 55.203 182.202 56.505 182.202 57.911 L 182.202 82.655 L 172.715 82.655 L 172.715 58.694 C 172.715 56.924 172.715 55.244 172.715 53.656 C 172.715 52.067 172.556 50.648 172.238 49.4 C 171.926 48.151 171.405 47.178 170.675 46.48 C 169.939 45.777 168.867 45.425 167.459 45.425 C 166.988 45.425 166.335 45.49 165.498 45.619 C 164.662 45.748 163.788 45.967 162.875 46.278 C 161.956 46.595 161.041 46.985 160.128 47.448 C 159.209 47.917 158.438 48.465 157.813 49.092 L 157.813 82.655 L 148.247 82.655 L 148.247 38.628 L 156.798 38.628 L 157.813 43.157 C 159.121 41.961 160.808 40.856 162.875 39.842 C 164.936 38.827 167.091 38.32 169.341 38.32 C 171.85 38.32 173.94 38.866 175.613 39.956 C 177.285 41.052 178.958 42.667 180.63 44.801 C 181.519 43.81 182.512 42.899 183.607 42.066 C 184.708 41.234 185.848 40.53 187.025 39.956 C 188.197 39.387 189.36 38.945 190.515 38.628 C 191.663 38.317 192.758 38.162 193.801 38.162 C 195.579 38.162 197.255 38.514 198.827 39.217 C 200.393 39.921 201.766 40.923 202.943 42.225 C 204.115 43.526 205.028 45.074 205.682 46.867 C 206.335 48.661 206.662 50.599 206.662 52.68 L 206.662 57.911 L 206.662 81.169 Z M 214.754 82.655 L 234.982 25.21 L 244.319 25.21 L 264.389 82.655 L 254.663 82.655 L 250.511 70.714 L 228.79 70.714 L 224.559 82.655 L 214.754 82.655 Z M 230.989 64.392 L 248.241 64.392 L 239.69 39.569 L 230.989 64.392 Z M 285.306 82.655 L 275.74 82.655 L 275.74 51.836 C 275.74 53.681 285.306 53.677 285.306 51.836 L 285.306 82.655 Z" style="fill: rgb(255, 255, 255);"/>
    <path d="M 280.903 49.439 C 287.842 49.439 293.468 43.839 293.468 36.931 C 293.468 30.023 287.842 24.423 280.903 24.423 C 273.963 24.423 268.337 30.023 268.337 36.931 C 268.337 43.839 273.963 49.439 280.903 49.439 Z" stroke="black" stroke-linecap="round" style="fill: rgb(154, 82, 82); stroke-miterlimit: 6.44; stroke-dashoffset: 29px; vector-effect: non-scaling-stroke; stroke-width: 0px;"/>
    <path d="M 282.237 31.853 L 279.888 31.853 L 279.888 42.328 L 282.237 42.328 L 282.237 31.853 Z" fill="white" style="stroke-width: 0px;"/>
    <path d="M 286.771 36.5 L 275.9 36.5 L 275.9 38.404 L 286.771 38.404 L 286.771 36.5 Z" fill="white" style="stroke-width: 0px;"/>
    <path d="M8.92188 93.3125L10.3984 96.168L11.8789 93.3125H12.7344L10.7734 96.875V99H10.0195V96.875L8.05859 93.3125H8.92188ZM17.9062 96.9336V96.8438C17.9062 96.5391 17.9505 96.2565 18.0391 95.9961C18.1276 95.7331 18.2552 95.5052 18.4219 95.3125C18.5885 95.1172 18.7904 94.9661 19.0273 94.8594C19.2643 94.75 19.5299 94.6953 19.8242 94.6953C20.1211 94.6953 20.388 94.75 20.625 94.8594C20.8646 94.9661 21.0677 95.1172 21.2344 95.3125C21.4036 95.5052 21.5326 95.7331 21.6211 95.9961C21.7096 96.2565 21.7539 96.5391 21.7539 96.8438V96.9336C21.7539 97.2383 21.7096 97.5208 21.6211 97.7812C21.5326 98.0417 21.4036 98.2695 21.2344 98.4648C21.0677 98.6576 20.8659 98.8086 20.6289 98.918C20.3945 99.0247 20.1289 99.0781 19.832 99.0781C19.5352 99.0781 19.2682 99.0247 19.0312 98.918C18.7943 98.8086 18.5911 98.6576 18.4219 98.4648C18.2552 98.2695 18.1276 98.0417 18.0391 97.7812C17.9505 97.5208 17.9062 97.2383 17.9062 96.9336ZM18.6289 96.8438V96.9336C18.6289 97.1445 18.6536 97.3438 18.7031 97.5312C18.7526 97.7161 18.8268 97.8802 18.9258 98.0234C19.0273 98.1667 19.1536 98.2799 19.3047 98.3633C19.4557 98.444 19.6315 98.4844 19.832 98.4844C20.0299 98.4844 20.2031 98.444 20.3516 98.3633C20.5026 98.2799 20.6276 98.1667 20.7266 98.0234C20.8255 97.8802 20.8997 97.7161 20.9492 97.5312C21.0013 97.3438 21.0273 97.1445 21.0273 96.9336V96.8438C21.0273 96.6354 21.0013 96.4388 20.9492 96.2539C20.8997 96.0664 20.8242 95.901 20.7227 95.7578C20.6237 95.612 20.4987 95.4974 20.3477 95.4141C20.1992 95.3307 20.0247 95.2891 19.8242 95.2891C19.6263 95.2891 19.4518 95.3307 19.3008 95.4141C19.1523 95.4974 19.0273 95.612 18.9258 95.7578C18.8268 95.901 18.7526 96.0664 18.7031 96.2539C18.6536 96.4388 18.6289 96.6354 18.6289 96.8438ZM30.2461 98.0234V94.7734H30.9727V99H30.2812L30.2461 98.0234ZM30.3828 97.1328L30.6836 97.125C30.6836 97.4062 30.6536 97.6667 30.5938 97.9062C30.5365 98.1432 30.4427 98.349 30.3125 98.5234C30.1823 98.6979 30.0117 98.8346 29.8008 98.9336C29.5898 99.0299 29.3333 99.0781 29.0312 99.0781C28.8255 99.0781 28.6367 99.0482 28.4648 98.9883C28.2956 98.9284 28.1497 98.8359 28.0273 98.7109C27.9049 98.5859 27.8099 98.4232 27.7422 98.2227C27.6771 98.0221 27.6445 97.7812 27.6445 97.5V94.7734H28.3672V97.5078C28.3672 97.6979 28.388 97.8555 28.4297 97.9805C28.474 98.1029 28.5326 98.2005 28.6055 98.2734C28.681 98.3438 28.7643 98.3932 28.8555 98.4219C28.9492 98.4505 29.0456 98.4648 29.1445 98.4648C29.4518 98.4648 29.6953 98.4062 29.875 98.2891C30.0547 98.1693 30.1836 98.0091 30.2617 97.8086C30.3424 97.6055 30.3828 97.3802 30.3828 97.1328ZM37.7969 95.4375V99H37.0742V94.7734H37.7773L37.7969 95.4375ZM39.1172 94.75L39.1133 95.4219C39.0534 95.4089 38.9961 95.401 38.9414 95.3984C38.8893 95.3932 38.8294 95.3906 38.7617 95.3906C38.5951 95.3906 38.4479 95.4167 38.3203 95.4688C38.1927 95.5208 38.0846 95.5938 37.9961 95.6875C37.9076 95.7812 37.8372 95.8932 37.7852 96.0234C37.7357 96.151 37.7031 96.2917 37.6875 96.4453L37.4844 96.5625C37.4844 96.3073 37.5091 96.0677 37.5586 95.8438C37.6107 95.6198 37.6901 95.4219 37.7969 95.25C37.9036 95.0755 38.0391 94.9401 38.2031 94.8438C38.3698 94.7448 38.5677 94.6953 38.7969 94.6953C38.849 94.6953 38.9089 94.7018 38.9766 94.7148C39.0443 94.7253 39.0911 94.737 39.1172 94.75ZM54.9102 97.5625C54.9102 97.4297 54.8893 97.3125 54.8477 97.2109C54.8086 97.1068 54.7383 97.013 54.6367 96.9297C54.5378 96.8464 54.3997 96.7669 54.2227 96.6914C54.0482 96.6159 53.8268 96.5391 53.5586 96.4609C53.2773 96.3776 53.0234 96.2852 52.7969 96.1836C52.5703 96.0794 52.3763 95.9609 52.2148 95.8281C52.0534 95.6953 51.9297 95.543 51.8438 95.3711C51.7578 95.1992 51.7148 95.0026 51.7148 94.7812C51.7148 94.5599 51.7604 94.3555 51.8516 94.168C51.9427 93.9805 52.0729 93.8177 52.2422 93.6797C52.4141 93.5391 52.6185 93.4297 52.8555 93.3516C53.0924 93.2734 53.3568 93.2344 53.6484 93.2344C54.0755 93.2344 54.4375 93.3164 54.7344 93.4805C55.0339 93.6419 55.2617 93.8542 55.418 94.1172C55.5742 94.3776 55.6523 94.6562 55.6523 94.9531H54.9023C54.9023 94.7396 54.8568 94.5508 54.7656 94.3867C54.6745 94.2201 54.5365 94.0898 54.3516 93.9961C54.1667 93.8997 53.9323 93.8516 53.6484 93.8516C53.3802 93.8516 53.1589 93.8919 52.9844 93.9727C52.8099 94.0534 52.6797 94.1628 52.5938 94.3008C52.5104 94.4388 52.4688 94.5964 52.4688 94.7734C52.4688 94.8932 52.4935 95.0026 52.543 95.1016C52.5951 95.1979 52.6745 95.2878 52.7812 95.3711C52.8906 95.4544 53.0286 95.5312 53.1953 95.6016C53.3646 95.6719 53.5664 95.7396 53.8008 95.8047C54.1237 95.8958 54.4023 95.9974 54.6367 96.1094C54.8711 96.2214 55.0638 96.3477 55.2148 96.4883C55.3685 96.6263 55.4818 96.7839 55.5547 96.9609C55.6302 97.1354 55.668 97.3333 55.668 97.5547C55.668 97.7865 55.6211 97.9961 55.5273 98.1836C55.4336 98.3711 55.2995 98.5312 55.125 98.6641C54.9505 98.7969 54.7409 98.8997 54.4961 98.9727C54.2539 99.043 53.9831 99.0781 53.6836 99.0781C53.4206 99.0781 53.1615 99.0417 52.9062 98.9688C52.6536 98.8958 52.4232 98.7865 52.2148 98.6406C52.0091 98.4948 51.8438 98.3151 51.7188 98.1016C51.5964 97.8854 51.5352 97.6354 51.5352 97.3516H52.2852C52.2852 97.5469 52.3229 97.7148 52.3984 97.8555C52.474 97.9935 52.5768 98.1081 52.707 98.1992C52.8398 98.2904 52.9896 98.3581 53.1562 98.4023C53.3255 98.444 53.5013 98.4648 53.6836 98.4648C53.9466 98.4648 54.1693 98.4284 54.3516 98.3555C54.5339 98.2826 54.6719 98.1784 54.7656 98.043C54.862 97.9076 54.9102 97.7474 54.9102 97.5625ZM62.2461 93V99H61.5195V93H62.2461ZM64.8281 94.7734L62.9844 96.7461L61.9531 97.8164L61.8945 97.0469L62.6328 96.1641L63.9453 94.7734H64.8281ZM64.168 99L62.6602 96.9844L63.0352 96.3398L65.0195 99H64.168ZM71.3594 94.7734V99H70.6328V94.7734H71.3594ZM70.5781 93.6523C70.5781 93.5352 70.6133 93.4362 70.6836 93.3555C70.7565 93.2747 70.8633 93.2344 71.0039 93.2344C71.1419 93.2344 71.2474 93.2747 71.3203 93.3555C71.3958 93.4362 71.4336 93.5352 71.4336 93.6523C71.4336 93.7643 71.3958 93.8607 71.3203 93.9414C71.2474 94.0195 71.1419 94.0586 71.0039 94.0586C70.8633 94.0586 70.7565 94.0195 70.6836 93.9414C70.6133 93.8607 70.5781 93.7643 70.5781 93.6523ZM78.2422 95.6758V99H77.5195V94.7734H78.2031L78.2422 95.6758ZM78.0703 96.7266L77.7695 96.7148C77.7721 96.4258 77.8151 96.1589 77.8984 95.9141C77.9818 95.6667 78.099 95.4518 78.25 95.2695C78.401 95.0872 78.5807 94.9466 78.7891 94.8477C79 94.7461 79.2331 94.6953 79.4883 94.6953C79.6966 94.6953 79.8841 94.724 80.0508 94.7812C80.2174 94.8359 80.3594 94.9245 80.4766 95.0469C80.5964 95.1693 80.6875 95.3281 80.75 95.5234C80.8125 95.7161 80.8438 95.9518 80.8438 96.2305V99H80.1172V96.2227C80.1172 96.0013 80.0846 95.8242 80.0195 95.6914C79.9544 95.556 79.8594 95.4583 79.7344 95.3984C79.6094 95.3359 79.4557 95.3047 79.2734 95.3047C79.0938 95.3047 78.9297 95.3424 78.7812 95.418C78.6354 95.4935 78.5091 95.5977 78.4023 95.7305C78.2982 95.8633 78.2161 96.0156 78.1562 96.1875C78.099 96.3568 78.0703 96.5365 78.0703 96.7266ZM97.4688 97.1914H98.2188C98.1797 97.5508 98.0768 97.8724 97.9102 98.1562C97.7435 98.4401 97.5078 98.6654 97.2031 98.832C96.8984 98.9961 96.5182 99.0781 96.0625 99.0781C95.7292 99.0781 95.4258 99.0156 95.1523 98.8906C94.8815 98.7656 94.6484 98.5885 94.4531 98.3594C94.2578 98.1276 94.1068 97.8503 94 97.5273C93.8958 97.2018 93.8438 96.8398 93.8438 96.4414V95.875C93.8438 95.4766 93.8958 95.1159 94 94.793C94.1068 94.4674 94.2591 94.1888 94.457 93.957C94.6576 93.7253 94.8984 93.5469 95.1797 93.4219C95.4609 93.2969 95.7773 93.2344 96.1289 93.2344C96.5586 93.2344 96.9219 93.3151 97.2188 93.4766C97.5156 93.638 97.7461 93.862 97.9102 94.1484C98.0768 94.4323 98.1797 94.7617 98.2188 95.1367H97.4688C97.4323 94.8711 97.3646 94.6432 97.2656 94.4531C97.1667 94.2604 97.026 94.112 96.8438 94.0078C96.6615 93.9036 96.4232 93.8516 96.1289 93.8516C95.8763 93.8516 95.6536 93.8997 95.4609 93.9961C95.2708 94.0924 95.1107 94.2292 94.9805 94.4062C94.8529 94.5833 94.7565 94.7956 94.6914 95.043C94.6263 95.2904 94.5938 95.5651 94.5938 95.8672V96.4414C94.5938 96.7201 94.6224 96.9818 94.6797 97.2266C94.7396 97.4714 94.8294 97.6862 94.9492 97.8711C95.069 98.056 95.2214 98.2018 95.4062 98.3086C95.5911 98.4128 95.8099 98.4648 96.0625 98.4648C96.3828 98.4648 96.638 98.4141 96.8281 98.3125C97.0182 98.2109 97.1615 98.0651 97.2578 97.875C97.3568 97.6849 97.4271 97.457 97.4688 97.1914ZM106.629 98.2773V96.1016C106.629 95.9349 106.595 95.7904 106.527 95.668C106.462 95.543 106.363 95.4466 106.23 95.3789C106.098 95.3112 105.934 95.2773 105.738 95.2773C105.556 95.2773 105.396 95.3086 105.258 95.3711C105.122 95.4336 105.016 95.5156 104.938 95.6172C104.862 95.7188 104.824 95.8281 104.824 95.9453H104.102C104.102 95.7943 104.141 95.6445 104.219 95.4961C104.297 95.3477 104.409 95.2135 104.555 95.0938C104.703 94.9714 104.88 94.875 105.086 94.8047C105.294 94.7318 105.526 94.6953 105.781 94.6953C106.089 94.6953 106.359 94.7474 106.594 94.8516C106.831 94.9557 107.016 95.1133 107.148 95.3242C107.284 95.5326 107.352 95.7943 107.352 96.1094V98.0781C107.352 98.2188 107.363 98.3685 107.387 98.5273C107.413 98.6862 107.451 98.8229 107.5 98.9375V99H106.746C106.71 98.9167 106.681 98.806 106.66 98.668C106.639 98.5273 106.629 98.3971 106.629 98.2773ZM106.754 96.4375L106.762 96.9453H106.031C105.826 96.9453 105.642 96.9622 105.48 96.9961C105.319 97.0273 105.184 97.0755 105.074 97.1406C104.965 97.2057 104.882 97.2878 104.824 97.3867C104.767 97.4831 104.738 97.5964 104.738 97.7266C104.738 97.8594 104.768 97.9805 104.828 98.0898C104.888 98.1992 104.978 98.2865 105.098 98.3516C105.22 98.4141 105.37 98.4453 105.547 98.4453C105.768 98.4453 105.964 98.3984 106.133 98.3047C106.302 98.2109 106.436 98.0964 106.535 97.9609C106.637 97.8255 106.691 97.694 106.699 97.5664L107.008 97.9141C106.99 98.0234 106.94 98.1445 106.859 98.2773C106.779 98.4102 106.671 98.5378 106.535 98.6602C106.402 98.7799 106.243 98.8802 106.059 98.9609C105.876 99.0391 105.671 99.0781 105.441 99.0781C105.155 99.0781 104.904 99.0221 104.688 98.9102C104.474 98.7982 104.307 98.6484 104.188 98.4609C104.07 98.2708 104.012 98.0586 104.012 97.8242C104.012 97.5977 104.056 97.3984 104.145 97.2266C104.233 97.0521 104.361 96.9076 104.527 96.793C104.694 96.6758 104.895 96.5872 105.129 96.5273C105.363 96.4674 105.625 96.4375 105.914 96.4375H106.754ZM114.211 95.4375V99H113.488V94.7734H114.191L114.211 95.4375ZM115.531 94.75L115.527 95.4219C115.467 95.4089 115.41 95.401 115.355 95.3984C115.303 95.3932 115.243 95.3906 115.176 95.3906C115.009 95.3906 114.862 95.4167 114.734 95.4688C114.607 95.5208 114.499 95.5938 114.41 95.6875C114.322 95.7812 114.251 95.8932 114.199 96.0234C114.15 96.151 114.117 96.2917 114.102 96.4453L113.898 96.5625C113.898 96.3073 113.923 96.0677 113.973 95.8438C114.025 95.6198 114.104 95.4219 114.211 95.25C114.318 95.0755 114.453 94.9401 114.617 94.8438C114.784 94.7448 114.982 94.6953 115.211 94.6953C115.263 94.6953 115.323 94.7018 115.391 94.7148C115.458 94.7253 115.505 94.737 115.531 94.75ZM122.875 99.0781C122.581 99.0781 122.314 99.0286 122.074 98.9297C121.837 98.8281 121.633 98.6862 121.461 98.5039C121.292 98.3216 121.161 98.1055 121.07 97.8555C120.979 97.6055 120.934 97.332 120.934 97.0352V96.8711C120.934 96.5273 120.984 96.2214 121.086 95.9531C121.188 95.6823 121.326 95.4531 121.5 95.2656C121.674 95.0781 121.872 94.9362 122.094 94.8398C122.315 94.7435 122.544 94.6953 122.781 94.6953C123.083 94.6953 123.344 94.7474 123.562 94.8516C123.784 94.9557 123.965 95.1016 124.105 95.2891C124.246 95.474 124.35 95.6927 124.418 95.9453C124.486 96.1953 124.52 96.4688 124.52 96.7656V97.0898H121.363V96.5H123.797V96.4453C123.786 96.2578 123.747 96.0755 123.68 95.8984C123.615 95.7214 123.51 95.5755 123.367 95.4609C123.224 95.3464 123.029 95.2891 122.781 95.2891C122.617 95.2891 122.466 95.3242 122.328 95.3945C122.19 95.4622 122.072 95.5638 121.973 95.6992C121.874 95.8346 121.797 96 121.742 96.1953C121.688 96.3906 121.66 96.6159 121.66 96.8711V97.0352C121.66 97.2357 121.688 97.4245 121.742 97.6016C121.799 97.776 121.882 97.9297 121.988 98.0625C122.098 98.1953 122.229 98.2995 122.383 98.375C122.539 98.4505 122.716 98.4883 122.914 98.4883C123.169 98.4883 123.385 98.4362 123.562 98.332C123.74 98.2279 123.895 98.0885 124.027 97.9141L124.465 98.2617C124.374 98.3997 124.258 98.5312 124.117 98.6562C123.977 98.7812 123.803 98.8828 123.598 98.9609C123.395 99.0391 123.154 99.0781 122.875 99.0781ZM140.891 97.1914H141.641C141.602 97.5508 141.499 97.8724 141.332 98.1562C141.165 98.4401 140.93 98.6654 140.625 98.832C140.32 98.9961 139.94 99.0781 139.484 99.0781C139.151 99.0781 138.848 99.0156 138.574 98.8906C138.303 98.7656 138.07 98.5885 137.875 98.3594C137.68 98.1276 137.529 97.8503 137.422 97.5273C137.318 97.2018 137.266 96.8398 137.266 96.4414V95.875C137.266 95.4766 137.318 95.1159 137.422 94.793C137.529 94.4674 137.681 94.1888 137.879 93.957C138.079 93.7253 138.32 93.5469 138.602 93.4219C138.883 93.2969 139.199 93.2344 139.551 93.2344C139.98 93.2344 140.344 93.3151 140.641 93.4766C140.938 93.638 141.168 93.862 141.332 94.1484C141.499 94.4323 141.602 94.7617 141.641 95.1367H140.891C140.854 94.8711 140.786 94.6432 140.688 94.4531C140.589 94.2604 140.448 94.112 140.266 94.0078C140.083 93.9036 139.845 93.8516 139.551 93.8516C139.298 93.8516 139.076 93.8997 138.883 93.9961C138.693 94.0924 138.533 94.2292 138.402 94.4062C138.275 94.5833 138.178 94.7956 138.113 95.043C138.048 95.2904 138.016 95.5651 138.016 95.8672V96.4414C138.016 96.7201 138.044 96.9818 138.102 97.2266C138.161 97.4714 138.251 97.6862 138.371 97.8711C138.491 98.056 138.643 98.2018 138.828 98.3086C139.013 98.4128 139.232 98.4648 139.484 98.4648C139.805 98.4648 140.06 98.4141 140.25 98.3125C140.44 98.2109 140.583 98.0651 140.68 97.875C140.779 97.6849 140.849 97.457 140.891 97.1914ZM147.367 96.9336V96.8438C147.367 96.5391 147.411 96.2565 147.5 95.9961C147.589 95.7331 147.716 95.5052 147.883 95.3125C148.049 95.1172 148.251 94.9661 148.488 94.8594C148.725 94.75 148.991 94.6953 149.285 94.6953C149.582 94.6953 149.849 94.75 150.086 94.8594C150.326 94.9661 150.529 95.1172 150.695 95.3125C150.865 95.5052 150.993 95.7331 151.082 95.9961C151.171 96.2565 151.215 96.5391 151.215 96.8438V96.9336C151.215 97.2383 151.171 97.5208 151.082 97.7812C150.993 98.0417 150.865 98.2695 150.695 98.4648C150.529 98.6576 150.327 98.8086 150.09 98.918C149.855 99.0247 149.59 99.0781 149.293 99.0781C148.996 99.0781 148.729 99.0247 148.492 98.918C148.255 98.8086 148.052 98.6576 147.883 98.4648C147.716 98.2695 147.589 98.0417 147.5 97.7812C147.411 97.5208 147.367 97.2383 147.367 96.9336ZM148.09 96.8438V96.9336C148.09 97.1445 148.115 97.3438 148.164 97.5312C148.214 97.7161 148.288 97.8802 148.387 98.0234C148.488 98.1667 148.615 98.2799 148.766 98.3633C148.917 98.444 149.092 98.4844 149.293 98.4844C149.491 98.4844 149.664 98.444 149.812 98.3633C149.964 98.2799 150.089 98.1667 150.188 98.0234C150.286 97.8802 150.361 97.7161 150.41 97.5312C150.462 97.3438 150.488 97.1445 150.488 96.9336V96.8438C150.488 96.6354 150.462 96.4388 150.41 96.2539C150.361 96.0664 150.285 95.901 150.184 95.7578C150.085 95.612 149.96 95.4974 149.809 95.4141C149.66 95.3307 149.486 95.2891 149.285 95.2891C149.087 95.2891 148.913 95.3307 148.762 95.4141C148.613 95.4974 148.488 95.612 148.387 95.7578C148.288 95.901 148.214 96.0664 148.164 96.2539C148.115 96.4388 148.09 96.6354 148.09 96.8438ZM157.84 95.6133V99H157.113V94.7734H157.801L157.84 95.6133ZM157.691 96.7266L157.355 96.7148C157.358 96.4258 157.396 96.1589 157.469 95.9141C157.542 95.6667 157.65 95.4518 157.793 95.2695C157.936 95.0872 158.115 94.9466 158.328 94.8477C158.542 94.7461 158.789 94.6953 159.07 94.6953C159.268 94.6953 159.451 94.724 159.617 94.7812C159.784 94.8359 159.928 94.9232 160.051 95.043C160.173 95.1628 160.268 95.3164 160.336 95.5039C160.404 95.6914 160.438 95.918 160.438 96.1836V99H159.715V96.2188C159.715 95.9974 159.677 95.8203 159.602 95.6875C159.529 95.5547 159.424 95.4583 159.289 95.3984C159.154 95.3359 158.995 95.3047 158.812 95.3047C158.599 95.3047 158.421 95.3424 158.277 95.418C158.134 95.4935 158.02 95.5977 157.934 95.7305C157.848 95.8633 157.785 96.0156 157.746 96.1875C157.71 96.3568 157.691 96.5365 157.691 96.7266ZM160.43 96.3281L159.945 96.4766C159.948 96.2448 159.986 96.0221 160.059 95.8086C160.134 95.5951 160.242 95.4049 160.383 95.2383C160.526 95.0716 160.702 94.9401 160.91 94.8438C161.118 94.7448 161.357 94.6953 161.625 94.6953C161.852 94.6953 162.052 94.7253 162.227 94.7852C162.404 94.8451 162.552 94.9375 162.672 95.0625C162.794 95.1849 162.887 95.3424 162.949 95.5352C163.012 95.7279 163.043 95.957 163.043 96.2227V99H162.316V96.2148C162.316 95.9779 162.279 95.7943 162.203 95.6641C162.13 95.5312 162.026 95.4388 161.891 95.3867C161.758 95.332 161.599 95.3047 161.414 95.3047C161.255 95.3047 161.115 95.332 160.992 95.3867C160.87 95.4414 160.767 95.5169 160.684 95.6133C160.6 95.707 160.536 95.8151 160.492 95.9375C160.451 96.0599 160.43 96.1901 160.43 96.3281ZM169.859 95.5859V100.625H169.133V94.7734H169.797L169.859 95.5859ZM172.707 96.8516V96.9336C172.707 97.2409 172.671 97.526 172.598 97.7891C172.525 98.0495 172.418 98.276 172.277 98.4688C172.139 98.6615 171.969 98.8112 171.766 98.918C171.562 99.0247 171.329 99.0781 171.066 99.0781C170.798 99.0781 170.561 99.0339 170.355 98.9453C170.15 98.8568 169.975 98.7279 169.832 98.5586C169.689 98.3893 169.574 98.1862 169.488 97.9492C169.405 97.7122 169.348 97.4453 169.316 97.1484V96.7109C169.348 96.3984 169.406 96.1185 169.492 95.8711C169.578 95.6237 169.691 95.4128 169.832 95.2383C169.975 95.0612 170.148 94.9271 170.352 94.8359C170.555 94.7422 170.789 94.6953 171.055 94.6953C171.32 94.6953 171.556 94.7474 171.762 94.8516C171.967 94.9531 172.141 95.099 172.281 95.2891C172.422 95.4792 172.527 95.707 172.598 95.9727C172.671 96.2357 172.707 96.5286 172.707 96.8516ZM171.98 96.9336V96.8516C171.98 96.6406 171.958 96.4427 171.914 96.2578C171.87 96.0703 171.801 95.9062 171.707 95.7656C171.616 95.6224 171.499 95.5104 171.355 95.4297C171.212 95.3464 171.042 95.3047 170.844 95.3047C170.661 95.3047 170.503 95.3359 170.367 95.3984C170.234 95.4609 170.121 95.5456 170.027 95.6523C169.934 95.7565 169.857 95.8763 169.797 96.0117C169.74 96.1445 169.697 96.2826 169.668 96.4258V97.4375C169.72 97.6198 169.793 97.7917 169.887 97.9531C169.98 98.112 170.105 98.2409 170.262 98.3398C170.418 98.4362 170.615 98.4844 170.852 98.4844C171.047 98.4844 171.215 98.444 171.355 98.3633C171.499 98.2799 171.616 98.1667 171.707 98.0234C171.801 97.8802 171.87 97.7161 171.914 97.5312C171.958 97.3438 171.98 97.1445 171.98 96.9336ZM181.121 98.2773V96.1016C181.121 95.9349 181.087 95.7904 181.02 95.668C180.954 95.543 180.855 95.4466 180.723 95.3789C180.59 95.3112 180.426 95.2773 180.23 95.2773C180.048 95.2773 179.888 95.3086 179.75 95.3711C179.615 95.4336 179.508 95.5156 179.43 95.6172C179.354 95.7188 179.316 95.8281 179.316 95.9453H178.594C178.594 95.7943 178.633 95.6445 178.711 95.4961C178.789 95.3477 178.901 95.2135 179.047 95.0938C179.195 94.9714 179.372 94.875 179.578 94.8047C179.786 94.7318 180.018 94.6953 180.273 94.6953C180.581 94.6953 180.852 94.7474 181.086 94.8516C181.323 94.9557 181.508 95.1133 181.641 95.3242C181.776 95.5326 181.844 95.7943 181.844 96.1094V98.0781C181.844 98.2188 181.855 98.3685 181.879 98.5273C181.905 98.6862 181.943 98.8229 181.992 98.9375V99H181.238C181.202 98.9167 181.173 98.806 181.152 98.668C181.132 98.5273 181.121 98.3971 181.121 98.2773ZM181.246 96.4375L181.254 96.9453H180.523C180.318 96.9453 180.134 96.9622 179.973 96.9961C179.811 97.0273 179.676 97.0755 179.566 97.1406C179.457 97.2057 179.374 97.2878 179.316 97.3867C179.259 97.4831 179.23 97.5964 179.23 97.7266C179.23 97.8594 179.26 97.9805 179.32 98.0898C179.38 98.1992 179.47 98.2865 179.59 98.3516C179.712 98.4141 179.862 98.4453 180.039 98.4453C180.26 98.4453 180.456 98.3984 180.625 98.3047C180.794 98.2109 180.928 98.0964 181.027 97.9609C181.129 97.8255 181.184 97.694 181.191 97.5664L181.5 97.9141C181.482 98.0234 181.432 98.1445 181.352 98.2773C181.271 98.4102 181.163 98.5378 181.027 98.6602C180.895 98.7799 180.736 98.8802 180.551 98.9609C180.368 99.0391 180.163 99.0781 179.934 99.0781C179.647 99.0781 179.396 99.0221 179.18 98.9102C178.966 98.7982 178.799 98.6484 178.68 98.4609C178.562 98.2708 178.504 98.0586 178.504 97.8242C178.504 97.5977 178.548 97.3984 178.637 97.2266C178.725 97.0521 178.853 96.9076 179.02 96.793C179.186 96.6758 179.387 96.5872 179.621 96.5273C179.855 96.4674 180.117 96.4375 180.406 96.4375H181.246ZM188.703 95.6758V99H187.98V94.7734H188.664L188.703 95.6758ZM188.531 96.7266L188.23 96.7148C188.233 96.4258 188.276 96.1589 188.359 95.9141C188.443 95.6667 188.56 95.4518 188.711 95.2695C188.862 95.0872 189.042 94.9466 189.25 94.8477C189.461 94.7461 189.694 94.6953 189.949 94.6953C190.158 94.6953 190.345 94.724 190.512 94.7812C190.678 94.8359 190.82 94.9245 190.938 95.0469C191.057 95.1693 191.148 95.3281 191.211 95.5234C191.273 95.7161 191.305 95.9518 191.305 96.2305V99H190.578V96.2227C190.578 96.0013 190.546 95.8242 190.48 95.6914C190.415 95.556 190.32 95.4583 190.195 95.3984C190.07 95.3359 189.917 95.3047 189.734 95.3047C189.555 95.3047 189.391 95.3424 189.242 95.418C189.096 95.4935 188.97 95.5977 188.863 95.7305C188.759 95.8633 188.677 96.0156 188.617 96.1875C188.56 96.3568 188.531 96.5365 188.531 96.7266ZM198.188 94.7734V99H197.461V94.7734H198.188ZM197.406 93.6523C197.406 93.5352 197.441 93.4362 197.512 93.3555C197.585 93.2747 197.691 93.2344 197.832 93.2344C197.97 93.2344 198.076 93.2747 198.148 93.3555C198.224 93.4362 198.262 93.5352 198.262 93.6523C198.262 93.7643 198.224 93.8607 198.148 93.9414C198.076 94.0195 197.97 94.0586 197.832 94.0586C197.691 94.0586 197.585 94.0195 197.512 93.9414C197.441 93.8607 197.406 93.7643 197.406 93.6523ZM204.156 96.9336V96.8438C204.156 96.5391 204.201 96.2565 204.289 95.9961C204.378 95.7331 204.505 95.5052 204.672 95.3125C204.839 95.1172 205.04 94.9661 205.277 94.8594C205.514 94.75 205.78 94.6953 206.074 94.6953C206.371 94.6953 206.638 94.75 206.875 94.8594C207.115 94.9661 207.318 95.1172 207.484 95.3125C207.654 95.5052 207.783 95.7331 207.871 95.9961C207.96 96.2565 208.004 96.5391 208.004 96.8438V96.9336C208.004 97.2383 207.96 97.5208 207.871 97.7812C207.783 98.0417 207.654 98.2695 207.484 98.4648C207.318 98.6576 207.116 98.8086 206.879 98.918C206.645 99.0247 206.379 99.0781 206.082 99.0781C205.785 99.0781 205.518 99.0247 205.281 98.918C205.044 98.8086 204.841 98.6576 204.672 98.4648C204.505 98.2695 204.378 98.0417 204.289 97.7812C204.201 97.5208 204.156 97.2383 204.156 96.9336ZM204.879 96.8438V96.9336C204.879 97.1445 204.904 97.3438 204.953 97.5312C205.003 97.7161 205.077 97.8802 205.176 98.0234C205.277 98.1667 205.404 98.2799 205.555 98.3633C205.706 98.444 205.882 98.4844 206.082 98.4844C206.28 98.4844 206.453 98.444 206.602 98.3633C206.753 98.2799 206.878 98.1667 206.977 98.0234C207.076 97.8802 207.15 97.7161 207.199 97.5312C207.251 97.3438 207.277 97.1445 207.277 96.9336V96.8438C207.277 96.6354 207.251 96.4388 207.199 96.2539C207.15 96.0664 207.074 95.901 206.973 95.7578C206.874 95.612 206.749 95.4974 206.598 95.4141C206.449 95.3307 206.275 95.2891 206.074 95.2891C205.876 95.2891 205.702 95.3307 205.551 95.4141C205.402 95.4974 205.277 95.612 205.176 95.7578C205.077 95.901 205.003 96.0664 204.953 96.2539C204.904 96.4388 204.879 96.6354 204.879 96.8438ZM214.633 95.6758V99H213.91V94.7734H214.594L214.633 95.6758ZM214.461 96.7266L214.16 96.7148C214.163 96.4258 214.206 96.1589 214.289 95.9141C214.372 95.6667 214.49 95.4518 214.641 95.2695C214.792 95.0872 214.971 94.9466 215.18 94.8477C215.391 94.7461 215.624 94.6953 215.879 94.6953C216.087 94.6953 216.275 94.724 216.441 94.7812C216.608 94.8359 216.75 94.9245 216.867 95.0469C216.987 95.1693 217.078 95.3281 217.141 95.5234C217.203 95.7161 217.234 95.9518 217.234 96.2305V99H216.508V96.2227C216.508 96.0013 216.475 95.8242 216.41 95.6914C216.345 95.556 216.25 95.4583 216.125 95.3984C216 95.3359 215.846 95.3047 215.664 95.3047C215.484 95.3047 215.32 95.3424 215.172 95.418C215.026 95.4935 214.9 95.5977 214.793 95.7305C214.689 95.8633 214.607 96.0156 214.547 96.1875C214.49 96.3568 214.461 96.5365 214.461 96.7266Z" style="fill: rgb(255, 255, 255);"/>
  </g>
</svg>