<svg width="512" height="512" viewBox="0 0 512 512" fill="none" xmlns="http://www.w3.org/2000/svg">
<rect width="512" height="512" rx="40" fill="white"/>
<g clip-path="url(#clip0_1_2)">
<mask id="mask0_1_2" style="mask-type:luminance" maskUnits="userSpaceOnUse" x="29" y="322" width="455" height="153">
<path d="M484 322H29V475H484V322Z" fill="white"/>
</mask>
<g mask="url(#mask0_1_2)">
<path d="M110.359 400.44C110.359 407.544 109.594 413.611 108.065 418.641C106.535 423.679 104.593 427.896 102.241 431.29C99.8884 434.683 97.241 437.358 94.2963 439.309C91.35 441.261 88.5029 442.725 85.7534 443.701C83.0023 444.678 80.4916 445.302 78.2181 445.575C75.9461 445.846 74.2567 445.983 73.1515 445.983H40.3074V359.697H66.4391C73.7447 359.697 80.1642 360.849 85.6993 363.153C91.2359 365.448 95.8249 368.508 99.4695 372.333C103.121 376.158 105.848 380.509 107.653 385.39C109.457 390.269 110.359 395.286 110.359 400.44ZM68.4424 435.682C78.0199 435.682 84.9305 432.636 89.1756 426.541C93.4118 420.457 95.5291 411.637 95.5291 400.083C95.5291 396.495 95.0951 392.943 94.2287 389.425C93.3712 385.917 91.7044 382.738 89.2282 379.889C86.752 377.041 83.3958 374.737 79.1611 372.978C74.925 371.22 69.4289 370.341 62.673 370.341H54.435V435.682H68.4424ZM154.835 379.243C160.177 379.243 164.89 380.315 168.976 382.462C173.052 384.607 176.408 387.456 179.043 391.009C181.67 394.561 183.554 398.659 184.694 403.302C185.826 407.953 186.043 412.776 185.344 417.771H139.184C139.184 420.268 139.652 422.568 140.589 424.669C141.535 426.778 142.813 428.595 144.423 430.116C146.033 431.637 147.956 432.829 150.194 433.69C152.43 434.553 154.844 434.983 157.436 434.983C158.294 434.983 159.372 434.881 160.672 434.68C161.964 434.487 163.338 434.134 164.797 433.624C166.248 433.123 167.698 432.481 169.148 431.698C170.598 430.917 171.876 429.979 172.981 428.889L178.154 436.736C175.564 439.937 172.544 442.356 169.095 443.991C165.638 445.636 161.238 446.458 155.897 446.458C151.581 446.458 147.54 445.579 143.773 443.819C140.005 442.061 136.787 439.66 134.116 436.618C131.446 433.576 129.328 430.024 127.762 425.961C126.188 421.899 125.401 417.529 125.401 412.851C125.401 408.243 126.188 403.89 127.762 399.793C129.328 395.695 131.428 392.125 134.063 389.083C136.689 386.04 139.807 383.64 143.415 381.882C147.031 380.122 150.838 379.243 154.835 379.243ZM172.146 407.457C172.146 405.355 171.757 403.288 170.978 401.257C170.191 399.226 169.108 397.392 167.728 395.757C166.359 394.113 164.691 392.801 162.728 391.826C160.765 390.85 158.646 390.327 156.374 390.256C153.942 390.256 151.706 390.723 149.662 391.654C147.62 392.596 145.851 393.844 144.357 395.401C142.87 396.965 141.717 398.821 140.894 400.966C140.064 403.113 139.648 405.276 139.648 407.457H172.146ZM237.647 394.227C235.454 393.603 232.787 393.25 229.649 393.172C226.818 393.172 224.01 393.505 221.225 394.174C218.439 394.834 216.22 395.946 214.566 397.512V422.57V422.795V445.983H200.32V379.942H213.041L214.566 386.736C215.751 385.566 216.99 384.514 218.28 383.583C219.58 382.642 221.093 381.877 222.817 381.288C224.542 380.707 226.58 380.258 228.933 379.942C231.293 379.634 234.199 379.48 237.647 379.48V394.227ZM339.334 443.753V445.983H325.208V410.041C325.208 407.386 325.19 404.866 325.154 402.484C325.11 400.1 324.854 397.972 324.385 396.1C323.917 394.227 323.151 392.767 322.091 391.72C321.029 390.666 319.398 390.138 317.195 390.138C316.806 390.138 316.122 390.195 315.139 390.31C314.157 390.424 313 390.657 311.665 391.009C310.328 391.36 308.857 391.927 307.247 392.71C305.637 393.493 304.05 394.509 302.485 395.757C302.485 398.799 302.503 401.217 302.538 403.011C302.583 404.805 302.604 406.758 302.604 408.867V445.983H288.358V410.041C288.358 407.386 288.358 404.866 288.358 402.484C288.358 400.1 288.119 397.972 287.641 396.1C287.173 394.227 286.39 392.767 285.294 391.72C284.189 390.666 282.579 390.138 280.465 390.138C279.758 390.138 278.777 390.235 277.52 390.429C276.265 390.622 274.952 390.951 273.581 391.417C272.201 391.893 270.827 392.478 269.456 393.172C268.076 393.876 266.918 394.698 265.98 395.638V445.983H251.615V379.942H264.456L265.98 386.736C267.944 384.942 270.477 383.284 273.581 381.763C276.676 380.241 279.912 379.48 283.291 379.48C287.059 379.48 290.197 380.299 292.709 381.934C295.22 383.578 297.732 386 300.243 389.201C301.578 387.715 303.069 386.349 304.713 385.099C306.367 383.851 308.079 382.795 309.846 381.934C311.606 381.081 313.352 380.417 315.087 379.942C316.811 379.475 318.455 379.243 320.021 379.243C322.691 379.243 325.208 379.771 327.569 380.826C329.92 381.882 331.982 383.384 333.749 385.337C335.509 387.289 336.88 389.611 337.862 392.301C338.843 394.992 339.334 397.899 339.334 401.02V408.867V443.753ZM351.485 445.983L381.861 359.815H395.882L426.02 445.983H411.415L405.18 428.071H372.563L366.209 445.983H351.485ZM375.865 418.588H401.771L388.931 381.354L375.865 418.588ZM457.43 445.983H443.065V399.754C443.065 402.521 457.43 402.515 457.43 399.754V445.983Z" fill="black"/>
<path d="M450.818 396.158C461.238 396.158 469.686 387.758 469.686 377.396C469.686 367.034 461.238 358.634 450.818 358.634C440.397 358.634 431.948 367.034 431.948 377.396C431.948 387.758 440.397 396.158 450.818 396.158Z" fill="#9A5252"/>
<path d="M452.821 369.78H449.294V385.492H452.821V369.78Z" fill="white"/>
<path d="M459.63 376.75H443.305V379.606H459.63V376.75Z" fill="white"/>
<path d="M42.3976 461.969L44.6148 466.252L46.838 461.969H48.1226L45.1779 467.312V470.5H44.0458V467.312L41.1012 461.969H42.3976ZM55.8889 467.4V467.266C55.8889 466.809 55.9554 466.385 56.0884 465.994C56.2213 465.6 56.4129 465.258 56.6633 464.969C56.9134 464.676 57.2166 464.449 57.5724 464.289C57.9283 464.125 58.3271 464.043 58.769 464.043C59.2149 464.043 59.6157 464.125 59.9715 464.289C60.3313 464.449 60.6363 464.676 60.8867 464.969C61.1407 465.258 61.3344 465.6 61.4673 465.994C61.6002 466.385 61.6668 466.809 61.6668 467.266V467.4C61.6668 467.857 61.6002 468.281 61.4673 468.672C61.3344 469.063 61.1407 469.404 60.8867 469.697C60.6363 469.986 60.3333 470.213 59.9774 470.377C59.6254 470.537 59.2266 470.617 58.7807 470.617C58.3351 470.617 57.9341 470.537 57.5782 470.377C57.2225 470.213 56.9173 469.986 56.6633 469.697C56.4129 469.404 56.2213 469.063 56.0884 468.672C55.9554 468.281 55.8889 467.857 55.8889 467.4ZM56.9741 467.266V467.4C56.9741 467.717 57.0112 468.016 57.0855 468.297C57.1599 468.574 57.2713 468.82 57.4199 469.035C57.5724 469.25 57.762 469.42 57.9889 469.545C58.2157 469.666 58.4797 469.727 58.7807 469.727C59.0779 469.727 59.338 469.666 59.561 469.545C59.7877 469.42 59.9755 469.25 60.1241 469.035C60.2726 468.82 60.3841 468.574 60.4584 468.297C60.5366 468.016 60.5757 467.717 60.5757 467.4V467.266C60.5757 466.953 60.5366 466.658 60.4584 466.381C60.3841 466.1 60.2707 465.851 60.1183 465.637C59.9696 465.418 59.7819 465.246 59.5551 465.121C59.3321 464.996 59.0701 464.934 58.769 464.934C58.4719 464.934 58.2098 464.996 57.9831 465.121C57.7601 465.246 57.5724 465.418 57.4199 465.637C57.2713 465.851 57.1599 466.1 57.0855 466.381C57.0112 466.658 56.9741 466.953 56.9741 467.266ZM74.4191 469.035V464.16H75.5102V470.5H74.4718L74.4191 469.035ZM74.6243 467.699L75.076 467.688C75.076 468.109 75.031 468.5 74.9412 468.859C74.8552 469.215 74.7143 469.523 74.5188 469.785C74.3233 470.047 74.0671 470.252 73.7504 470.4C73.4335 470.545 73.0484 470.617 72.5947 470.617C72.2858 470.617 72.0023 470.572 71.7442 470.482C71.4901 470.393 71.271 470.254 71.0872 470.066C70.9034 469.879 70.7608 469.635 70.6591 469.334C70.5613 469.033 70.5124 468.672 70.5124 468.25V464.16H71.5976V468.262C71.5976 468.547 71.6289 468.783 71.6915 468.971C71.758 469.154 71.846 469.301 71.9555 469.41C72.0688 469.516 72.1939 469.59 72.3309 469.633C72.4716 469.676 72.6163 469.697 72.7649 469.697C73.2263 469.697 73.592 469.609 73.8618 469.434C74.1317 469.254 74.3252 469.014 74.4425 468.713C74.5637 468.408 74.6243 468.07 74.6243 467.699ZM85.7577 465.156V470.5H84.6725V464.16H85.7283L85.7577 465.156ZM87.7404 464.125L87.7345 465.133C87.6446 465.113 87.5585 465.101 87.4764 465.098C87.3981 465.09 87.3082 465.086 87.2065 465.086C86.9564 465.086 86.7353 465.125 86.5437 465.203C86.3521 465.281 86.1898 465.391 86.0569 465.531C85.924 465.672 85.8182 465.84 85.7402 466.035C85.6658 466.226 85.6169 466.438 85.5935 466.668L85.2885 466.844C85.2885 466.461 85.3256 466.102 85.3999 465.766C85.4781 465.43 85.5974 465.133 85.7577 464.875C85.918 464.613 86.1214 464.41 86.3677 464.266C86.618 464.117 86.9152 464.043 87.2594 464.043C87.3376 464.043 87.4276 464.053 87.5292 464.072C87.6309 464.088 87.7012 464.105 87.7404 464.125ZM111.456 468.344C111.456 468.145 111.425 467.969 111.362 467.816C111.303 467.66 111.198 467.52 111.045 467.395C110.897 467.27 110.689 467.15 110.424 467.037C110.162 466.924 109.829 466.809 109.426 466.691C109.004 466.566 108.623 466.428 108.282 466.275C107.942 466.119 107.651 465.941 107.408 465.742C107.166 465.543 106.98 465.315 106.851 465.057C106.722 464.799 106.658 464.504 106.658 464.172C106.658 463.84 106.726 463.533 106.863 463.252C107 462.971 107.195 462.727 107.45 462.52C107.708 462.309 108.015 462.145 108.37 462.027C108.726 461.91 109.123 461.852 109.561 461.852C110.202 461.852 110.746 461.975 111.192 462.221C111.642 462.463 111.984 462.781 112.218 463.176C112.453 463.566 112.57 463.984 112.57 464.43H111.444C111.444 464.109 111.376 463.826 111.239 463.58C111.102 463.33 110.895 463.135 110.617 462.994C110.339 462.85 109.987 462.777 109.561 462.777C109.158 462.777 108.826 462.838 108.564 462.959C108.302 463.08 108.106 463.244 107.978 463.451C107.852 463.658 107.79 463.895 107.79 464.16C107.79 464.34 107.827 464.504 107.901 464.652C107.979 464.797 108.099 464.932 108.259 465.057C108.423 465.182 108.63 465.297 108.881 465.402C109.135 465.508 109.438 465.609 109.79 465.707C110.275 465.844 110.693 465.996 111.045 466.164C111.397 466.332 111.687 466.522 111.913 466.732C112.144 466.939 112.314 467.176 112.424 467.441C112.537 467.703 112.594 468 112.594 468.332C112.594 468.68 112.523 468.994 112.383 469.275C112.242 469.557 112.041 469.797 111.778 469.996C111.516 470.195 111.202 470.35 110.834 470.459C110.47 470.565 110.064 470.617 109.614 470.617C109.219 470.617 108.83 470.563 108.447 470.453C108.067 470.344 107.721 470.18 107.408 469.961C107.099 469.742 106.851 469.473 106.664 469.152C106.48 468.828 106.388 468.453 106.388 468.027H107.514C107.514 468.32 107.571 468.572 107.684 468.783C107.798 468.99 107.952 469.162 108.147 469.299C108.347 469.436 108.572 469.537 108.822 469.603C109.076 469.666 109.34 469.697 109.614 469.697C110.009 469.697 110.343 469.643 110.617 469.533C110.891 469.424 111.098 469.268 111.239 469.064C111.384 468.861 111.456 468.621 111.456 468.344ZM122.472 461.5V470.5H121.381V461.5H122.472ZM126.349 464.16L123.581 467.119L122.032 468.725L121.944 467.57L123.053 466.246L125.023 464.16H126.349ZM125.358 470.5L123.094 467.477L123.657 466.51L126.637 470.5H125.358ZM136.157 464.16V470.5H135.066V464.16H136.157ZM134.984 462.478C134.984 462.303 135.036 462.154 135.142 462.033C135.252 461.912 135.412 461.852 135.623 461.852C135.83 461.852 135.989 461.912 136.098 462.033C136.212 462.154 136.268 462.303 136.268 462.478C136.268 462.646 136.212 462.791 136.098 462.912C135.989 463.029 135.83 463.088 135.623 463.088C135.412 463.088 135.252 463.029 135.142 462.912C135.036 462.791 134.984 462.646 134.984 462.478ZM146.492 465.514V470.5H145.407V464.16H146.434L146.492 465.514ZM146.234 467.09L145.783 467.072C145.786 466.639 145.851 466.238 145.976 465.871C146.101 465.5 146.277 465.178 146.504 464.904C146.731 464.631 147.001 464.42 147.314 464.272C147.63 464.119 147.98 464.043 148.364 464.043C148.676 464.043 148.958 464.086 149.208 464.172C149.458 464.254 149.672 464.387 149.848 464.57C150.028 464.754 150.164 464.992 150.258 465.285C150.352 465.574 150.399 465.928 150.399 466.346V470.5H149.308V466.334C149.308 466.002 149.259 465.736 149.161 465.537C149.064 465.334 148.921 465.187 148.733 465.098C148.545 465.004 148.315 464.957 148.041 464.957C147.771 464.957 147.525 465.014 147.302 465.127C147.083 465.24 146.893 465.397 146.733 465.596C146.577 465.795 146.453 466.023 146.363 466.281C146.277 466.535 146.234 466.805 146.234 467.09ZM175.364 467.787H176.49C176.432 468.326 176.277 468.809 176.027 469.234C175.777 469.66 175.423 469.998 174.965 470.248C174.508 470.494 173.937 470.617 173.252 470.617C172.752 470.617 172.296 470.523 171.885 470.336C171.479 470.148 171.129 469.883 170.836 469.539C170.542 469.191 170.316 468.775 170.155 468.291C169.999 467.803 169.921 467.26 169.921 466.662V465.812C169.921 465.215 169.999 464.674 170.155 464.189C170.316 463.701 170.544 463.283 170.841 462.936C171.143 462.588 171.504 462.32 171.927 462.133C172.349 461.945 172.824 461.852 173.352 461.852C173.997 461.852 174.543 461.973 174.989 462.215C175.434 462.457 175.78 462.793 176.027 463.223C176.277 463.648 176.432 464.143 176.49 464.705H175.364C175.309 464.307 175.208 463.965 175.059 463.68C174.91 463.391 174.699 463.168 174.426 463.012C174.152 462.855 173.794 462.777 173.352 462.777C172.973 462.777 172.638 462.85 172.349 462.994C172.063 463.139 171.823 463.344 171.627 463.609C171.436 463.875 171.291 464.193 171.193 464.564C171.096 464.936 171.047 465.348 171.047 465.801V466.662C171.047 467.08 171.09 467.473 171.176 467.84C171.266 468.207 171.401 468.529 171.58 468.807C171.76 469.084 171.989 469.303 172.267 469.463C172.544 469.619 172.873 469.697 173.252 469.697C173.733 469.697 174.116 469.621 174.402 469.469C174.687 469.316 174.903 469.098 175.047 468.812C175.196 468.527 175.301 468.185 175.364 467.787ZM189.119 469.416V466.152C189.119 465.902 189.068 465.686 188.966 465.502C188.869 465.314 188.72 465.17 188.52 465.068C188.322 464.967 188.076 464.916 187.782 464.916C187.508 464.916 187.268 464.963 187.061 465.057C186.856 465.15 186.697 465.273 186.58 465.426C186.466 465.578 186.409 465.742 186.409 465.918H185.325C185.325 465.691 185.383 465.467 185.501 465.244C185.618 465.022 185.786 464.82 186.005 464.641C186.227 464.457 186.493 464.313 186.802 464.207C187.115 464.098 187.463 464.043 187.846 464.043C188.309 464.043 188.714 464.121 189.067 464.277C189.423 464.434 189.701 464.67 189.899 464.986C190.103 465.299 190.205 465.691 190.205 466.164V469.117C190.205 469.328 190.222 469.553 190.258 469.791C190.297 470.029 190.354 470.234 190.427 470.406V470.5H189.295C189.241 470.375 189.198 470.209 189.166 470.002C189.134 469.791 189.119 469.596 189.119 469.416ZM189.307 466.656L189.319 467.418H188.221C187.914 467.418 187.637 467.443 187.394 467.494C187.152 467.541 186.95 467.613 186.784 467.711C186.621 467.809 186.496 467.932 186.409 468.08C186.323 468.225 186.28 468.395 186.28 468.59C186.28 468.789 186.325 468.971 186.415 469.135C186.505 469.299 186.64 469.43 186.82 469.527C187.004 469.621 187.229 469.668 187.495 469.668C187.827 469.668 188.121 469.598 188.375 469.457C188.628 469.316 188.83 469.145 188.978 468.941C189.131 468.738 189.213 468.541 189.225 468.35L189.689 468.871C189.662 469.035 189.586 469.217 189.465 469.416C189.345 469.615 189.183 469.807 188.978 469.99C188.779 470.17 188.54 470.32 188.264 470.441C187.989 470.559 187.681 470.617 187.336 470.617C186.906 470.617 186.529 470.533 186.205 470.365C185.883 470.197 185.633 469.973 185.454 469.691C185.277 469.406 185.19 469.088 185.19 468.736C185.19 468.397 185.256 468.098 185.389 467.84C185.522 467.578 185.714 467.361 185.963 467.189C186.214 467.014 186.516 466.881 186.867 466.791C187.218 466.701 187.612 466.656 188.046 466.656H189.307ZM200.505 465.156V470.5H199.419V464.16H200.475L200.505 465.156ZM202.487 464.125L202.481 465.133C202.391 465.113 202.305 465.101 202.223 465.098C202.145 465.09 202.055 465.086 201.954 465.086C201.703 465.086 201.483 465.125 201.29 465.203C201.1 465.281 200.937 465.391 200.804 465.531C200.672 465.672 200.565 465.84 200.487 466.035C200.413 466.226 200.364 466.438 200.341 466.668L200.035 466.844C200.035 466.461 200.073 466.102 200.148 465.766C200.226 465.43 200.344 465.133 200.505 464.875C200.666 464.613 200.868 464.41 201.115 464.266C201.365 464.117 201.663 464.043 202.007 464.043C202.085 464.043 202.175 464.053 202.277 464.072C202.378 464.088 202.448 464.105 202.487 464.125ZM213.515 470.617C213.074 470.617 212.673 470.543 212.312 470.395C211.957 470.242 211.65 470.029 211.392 469.756C211.138 469.482 210.941 469.158 210.805 468.783C210.668 468.408 210.601 467.998 210.601 467.553V467.307C210.601 466.791 210.676 466.332 210.829 465.93C210.982 465.523 211.189 465.18 211.451 464.898C211.712 464.617 212.009 464.404 212.343 464.26C212.674 464.115 213.018 464.043 213.374 464.043C213.828 464.043 214.22 464.121 214.547 464.277C214.88 464.434 215.152 464.652 215.362 464.934C215.574 465.211 215.73 465.539 215.832 465.918C215.934 466.293 215.985 466.703 215.985 467.148V467.635H211.245V466.75H214.9V466.668C214.883 466.387 214.825 466.113 214.724 465.848C214.627 465.582 214.469 465.363 214.254 465.191C214.039 465.02 213.747 464.934 213.374 464.934C213.128 464.934 212.901 464.986 212.694 465.092C212.487 465.193 212.309 465.346 212.161 465.549C212.012 465.752 211.897 466 211.814 466.293C211.733 466.586 211.691 466.924 211.691 467.307V467.553C211.691 467.854 211.733 468.137 211.814 468.402C211.9 468.664 212.024 468.895 212.183 469.094C212.349 469.293 212.545 469.449 212.776 469.562C213.011 469.676 213.277 469.732 213.574 469.732C213.957 469.732 214.281 469.654 214.547 469.498C214.814 469.342 215.047 469.133 215.245 468.871L215.903 469.393C215.766 469.6 215.592 469.797 215.38 469.984C215.17 470.172 214.909 470.324 214.601 470.441C214.296 470.559 213.934 470.617 213.515 470.617ZM240.569 467.787H241.695C241.637 468.326 241.482 468.809 241.231 469.234C240.98 469.66 240.628 469.998 240.17 470.248C239.712 470.494 239.141 470.617 238.456 470.617C237.956 470.617 237.501 470.523 237.09 470.336C236.683 470.148 236.333 469.883 236.04 469.539C235.747 469.191 235.52 468.775 235.36 468.291C235.204 467.803 235.126 467.26 235.126 466.662V465.812C235.126 465.215 235.204 464.674 235.36 464.189C235.52 463.701 235.749 463.283 236.046 462.936C236.346 462.588 236.708 462.32 237.132 462.133C237.554 461.945 238.028 461.852 238.557 461.852C239.201 461.852 239.748 461.973 240.194 462.215C240.64 462.457 240.985 462.793 241.231 463.223C241.482 463.648 241.637 464.143 241.695 464.705H240.569C240.513 464.307 240.411 463.965 240.264 463.68C240.116 463.391 239.904 463.168 239.63 463.012C239.356 462.855 238.998 462.777 238.557 462.777C238.177 462.777 237.844 462.85 237.554 462.994C237.268 463.139 237.028 463.344 236.831 463.609C236.641 463.875 236.495 464.193 236.397 464.564C236.3 464.936 236.252 465.348 236.252 465.801V466.662C236.252 467.08 236.294 467.473 236.381 467.84C236.47 468.207 236.605 468.529 236.785 468.807C236.965 469.084 237.193 469.303 237.471 469.463C237.749 469.619 238.078 469.697 238.456 469.697C238.938 469.697 239.321 469.621 239.606 469.469C239.892 469.316 240.106 469.098 240.252 468.812C240.401 468.527 240.506 468.185 240.569 467.787ZM250.294 467.4V467.266C250.294 466.809 250.36 466.385 250.493 465.994C250.627 465.6 250.818 465.258 251.069 464.969C251.318 464.676 251.621 464.449 251.977 464.289C252.333 464.125 252.732 464.043 253.174 464.043C253.62 464.043 254.021 464.125 254.377 464.289C254.737 464.449 255.042 464.676 255.291 464.969C255.546 465.258 255.739 465.6 255.872 465.994C256.006 466.385 256.072 466.809 256.072 467.266V467.4C256.072 467.857 256.006 468.281 255.872 468.672C255.739 469.063 255.546 469.404 255.291 469.697C255.042 469.986 254.739 470.213 254.383 470.377C254.03 470.537 253.632 470.617 253.186 470.617C252.74 470.617 252.339 470.537 251.983 470.377C251.627 470.213 251.322 469.986 251.069 469.697C250.818 469.404 250.627 469.063 250.493 468.672C250.36 468.281 250.294 467.857 250.294 467.4ZM251.379 467.266V467.4C251.379 467.717 251.417 468.016 251.491 468.297C251.566 468.574 251.677 468.82 251.825 469.035C251.977 469.25 252.168 469.42 252.395 469.545C252.621 469.666 252.884 469.727 253.186 469.727C253.483 469.727 253.743 469.666 253.965 469.545C254.193 469.42 254.381 469.25 254.53 469.035C254.677 468.82 254.79 468.574 254.863 468.297C254.941 468.016 254.98 467.717 254.98 467.4V467.266C254.98 466.953 254.941 466.658 254.863 466.381C254.79 466.1 254.676 465.851 254.524 465.637C254.375 465.418 254.187 465.246 253.961 465.121C253.737 464.996 253.476 464.934 253.174 464.934C252.877 464.934 252.615 464.996 252.388 465.121C252.165 465.246 251.977 465.418 251.825 465.637C251.677 465.851 251.566 466.1 251.491 466.381C251.417 466.658 251.379 466.953 251.379 467.266ZM266.02 465.42V470.5H264.929V464.16H265.962L266.02 465.42ZM265.797 467.09L265.292 467.072C265.297 466.639 265.354 466.238 265.463 465.871C265.573 465.5 265.735 465.178 265.95 464.904C266.165 464.631 266.433 464.42 266.753 464.272C267.075 464.119 267.446 464.043 267.868 464.043C268.165 464.043 268.44 464.086 268.689 464.172C268.94 464.254 269.156 464.385 269.341 464.564C269.524 464.744 269.666 464.975 269.769 465.256C269.871 465.537 269.922 465.877 269.922 466.275V470.5H268.836V466.328C268.836 465.996 268.779 465.73 268.666 465.531C268.557 465.332 268.399 465.187 268.196 465.098C267.994 465.004 267.755 464.957 267.48 464.957C267.16 464.957 266.893 465.014 266.677 465.127C266.462 465.24 266.291 465.397 266.162 465.596C266.032 465.795 265.938 466.023 265.879 466.281C265.825 466.535 265.797 466.805 265.797 467.09ZM269.91 466.492L269.181 466.715C269.186 466.367 269.243 466.033 269.353 465.713C269.465 465.393 269.627 465.107 269.839 464.857C270.054 464.607 270.318 464.41 270.631 464.266C270.943 464.117 271.302 464.043 271.704 464.043C272.045 464.043 272.345 464.088 272.608 464.178C272.874 464.268 273.096 464.406 273.276 464.594C273.46 464.777 273.599 465.014 273.692 465.303C273.787 465.592 273.834 465.936 273.834 466.334V470.5H272.742V466.322C272.742 465.967 272.686 465.691 272.572 465.496C272.463 465.297 272.306 465.158 272.104 465.08C271.904 464.998 271.665 464.957 271.387 464.957C271.149 464.957 270.938 464.998 270.754 465.08C270.57 465.162 270.416 465.275 270.291 465.42C270.165 465.56 270.069 465.723 270.003 465.906C269.941 466.09 269.91 466.285 269.91 466.492ZM284.069 465.379V472.938H282.979V464.16H283.976L284.069 465.379ZM288.346 467.277V467.4C288.346 467.861 288.291 468.289 288.182 468.684C288.072 469.074 287.912 469.414 287.7 469.703C287.493 469.992 287.237 470.217 286.932 470.377C286.626 470.537 286.276 470.617 285.881 470.617C285.479 470.617 285.123 470.551 284.814 470.418C284.506 470.285 284.243 470.092 284.028 469.838C283.814 469.584 283.641 469.279 283.512 468.924C283.387 468.568 283.301 468.168 283.253 467.723V467.066C283.301 466.598 283.389 466.178 283.518 465.807C283.647 465.436 283.817 465.119 284.028 464.857C284.243 464.592 284.503 464.391 284.809 464.254C285.114 464.113 285.465 464.043 285.865 464.043C286.263 464.043 286.617 464.121 286.926 464.277C287.234 464.43 287.496 464.649 287.706 464.934C287.918 465.219 288.075 465.561 288.182 465.959C288.291 466.354 288.346 466.793 288.346 467.277ZM287.254 467.4V467.277C287.254 466.961 287.221 466.664 287.155 466.387C287.089 466.105 286.985 465.859 286.844 465.648C286.707 465.434 286.532 465.266 286.315 465.145C286.101 465.02 285.845 464.957 285.548 464.957C285.273 464.957 285.036 465.004 284.832 465.098C284.632 465.191 284.462 465.318 284.321 465.478C284.181 465.635 284.066 465.814 283.976 466.018C283.89 466.217 283.826 466.424 283.782 466.639V468.156C283.86 468.43 283.97 468.688 284.111 468.93C284.251 469.168 284.438 469.361 284.674 469.51C284.908 469.654 285.204 469.727 285.56 469.727C285.853 469.727 286.105 469.666 286.315 469.545C286.532 469.42 286.707 469.25 286.844 469.035C286.985 468.82 287.089 468.574 287.155 468.297C287.221 468.016 287.254 467.717 287.254 467.4ZM300.98 469.416V466.152C300.98 465.902 300.929 465.686 300.829 465.502C300.73 465.314 300.581 465.17 300.383 465.068C300.183 464.967 299.937 464.916 299.642 464.916C299.369 464.916 299.129 464.963 298.922 465.057C298.719 465.15 298.558 465.273 298.441 465.426C298.327 465.578 298.27 465.742 298.27 465.918H297.186C297.186 465.691 297.244 465.467 297.361 465.244C297.479 465.022 297.647 464.82 297.866 464.641C298.088 464.457 298.354 464.313 298.663 464.207C298.976 464.098 299.324 464.043 299.707 464.043C300.169 464.043 300.576 464.121 300.928 464.277C301.284 464.434 301.562 464.67 301.761 464.986C301.964 465.299 302.066 465.691 302.066 466.164V469.117C302.066 469.328 302.083 469.553 302.119 469.791C302.158 470.029 302.215 470.234 302.288 470.406V470.5H301.156C301.102 470.375 301.058 470.209 301.027 470.002C300.997 469.791 300.98 469.596 300.98 469.416ZM301.168 466.656L301.18 467.418H300.082C299.775 467.418 299.498 467.443 299.257 467.494C299.013 467.541 298.811 467.613 298.645 467.711C298.482 467.809 298.357 467.932 298.27 468.08C298.184 468.225 298.141 468.395 298.141 468.59C298.141 468.789 298.186 468.971 298.276 469.135C298.366 469.299 298.501 469.43 298.681 469.527C298.865 469.621 299.09 469.668 299.356 469.668C299.687 469.668 299.982 469.598 300.236 469.457C300.489 469.316 300.691 469.145 300.839 468.941C300.992 468.738 301.075 468.541 301.086 468.35L301.55 468.871C301.522 469.035 301.447 469.217 301.327 469.416C301.206 469.615 301.043 469.807 300.839 469.99C300.641 470.17 300.402 470.32 300.124 470.441C299.85 470.559 299.542 470.617 299.198 470.617C298.767 470.617 298.39 470.533 298.066 470.365C297.744 470.197 297.494 469.973 297.315 469.691C297.138 469.406 297.051 469.088 297.051 468.736C297.051 468.397 297.117 468.098 297.25 467.84C297.382 467.578 297.575 467.361 297.825 467.189C298.075 467.014 298.377 466.881 298.728 466.791C299.079 466.701 299.473 466.656 299.907 466.656H301.168ZM312.366 465.514V470.5H311.28V464.16H312.307L312.366 465.514ZM312.108 467.09L311.656 467.072C311.66 466.639 311.725 466.238 311.849 465.871C311.975 465.5 312.151 465.178 312.378 464.904C312.605 464.631 312.875 464.42 313.187 464.272C313.504 464.119 313.854 464.043 314.237 464.043C314.551 464.043 314.832 464.086 315.082 464.172C315.332 464.254 315.545 464.387 315.722 464.57C315.901 464.754 316.037 464.992 316.132 465.285C316.225 465.574 316.273 465.928 316.273 466.346V470.5H315.182V466.334C315.182 466.002 315.133 465.736 315.034 465.537C314.937 465.334 314.794 465.187 314.606 465.098C314.419 465.004 314.189 464.957 313.914 464.957C313.645 464.957 313.399 465.014 313.175 465.127C312.956 465.24 312.767 465.397 312.606 465.596C312.45 465.795 312.327 466.023 312.237 466.281C312.151 466.535 312.108 466.805 312.108 467.09ZM326.609 464.16V470.5H325.517V464.16H326.609ZM325.435 462.478C325.435 462.303 325.487 462.154 325.594 462.033C325.704 461.912 325.863 461.852 326.074 461.852C326.282 461.852 326.441 461.912 326.549 462.033C326.663 462.154 326.72 462.303 326.72 462.478C326.72 462.646 326.663 462.791 326.549 462.912C326.441 463.029 326.282 463.088 326.074 463.088C325.863 463.088 325.704 463.029 325.594 462.912C325.487 462.791 325.435 462.646 325.435 462.478ZM335.571 467.4V467.266C335.571 466.809 335.638 466.385 335.771 465.994C335.904 465.6 336.095 465.258 336.346 464.969C336.597 464.676 336.898 464.449 337.254 464.289C337.61 464.125 338.01 464.043 338.451 464.043C338.897 464.043 339.298 464.125 339.654 464.289C340.014 464.449 340.319 464.676 340.568 464.969C340.824 465.258 341.017 465.6 341.15 465.994C341.283 466.385 341.349 466.809 341.349 467.266V467.4C341.349 467.857 341.283 468.281 341.15 468.672C341.017 469.063 340.824 469.404 340.568 469.697C340.319 469.986 340.016 470.213 339.66 470.377C339.309 470.537 338.909 470.617 338.463 470.617C338.017 470.617 337.616 470.537 337.26 470.377C336.904 470.213 336.6 469.986 336.346 469.697C336.095 469.404 335.904 469.063 335.771 468.672C335.638 468.281 335.571 467.857 335.571 467.4ZM336.657 467.266V467.4C336.657 467.717 336.694 468.016 336.768 468.297C336.843 468.574 336.954 468.82 337.103 469.035C337.254 469.25 337.445 469.42 337.672 469.545C337.898 469.666 338.163 469.727 338.463 469.727C338.76 469.727 339.02 469.666 339.244 469.545C339.471 469.42 339.658 469.25 339.807 469.035C339.956 468.82 340.067 468.574 340.14 468.297C340.219 468.016 340.258 467.717 340.258 467.4V467.266C340.258 466.953 340.219 466.658 340.14 466.381C340.067 466.1 339.953 465.851 339.801 465.637C339.652 465.418 339.465 465.246 339.238 465.121C339.014 464.996 338.753 464.934 338.451 464.934C338.154 464.934 337.892 464.996 337.666 465.121C337.442 465.246 337.254 465.418 337.103 465.637C336.954 465.851 336.843 466.1 336.768 466.381C336.694 466.658 336.657 466.953 336.657 467.266ZM351.304 465.514V470.5H350.218V464.16H351.245L351.304 465.514ZM351.045 467.09L350.593 467.072C350.598 466.639 350.662 466.238 350.787 465.871C350.912 465.5 351.089 465.178 351.316 464.904C351.542 464.631 351.811 464.42 352.125 464.272C352.442 464.119 352.792 464.043 353.175 464.043C353.487 464.043 353.769 464.086 354.019 464.172C354.269 464.254 354.483 464.387 354.658 464.57C354.839 464.754 354.975 464.992 355.07 465.285C355.163 465.574 355.209 465.928 355.209 466.346V470.5H354.119V466.334C354.119 466.002 354.07 465.736 353.972 465.537C353.875 465.334 353.732 465.187 353.544 465.098C353.356 465.004 353.125 464.957 352.852 464.957C352.582 464.957 352.335 465.014 352.113 465.127C351.894 465.24 351.705 465.397 351.544 465.596C351.388 465.795 351.265 466.023 351.175 466.281C351.089 466.535 351.045 466.805 351.045 467.09Z" fill="black"/>
</g>
</g>
<path d="M371.457 304.816C370.276 300.412 368.619 296.466 366.568 292.951C362.989 286.789 358.228 281.992 352.981 278.192C349.054 275.326 344.842 273.01 340.576 271.005C334.158 268.002 327.612 265.704 321.561 263.461C315.518 261.246 309.979 259.057 305.685 256.521C304.12 255.587 302.7 254.617 301.483 253.61C299.642 252.072 298.223 250.46 297.189 248.629C296.154 246.816 295.468 244.766 295.193 242.202C295.01 240.371 294.928 238.659 294.928 237.02C294.928 232.186 295.642 227.974 296.549 223.708C299.259 220.65 301.731 217.016 304.065 212.667C306.427 208.29 308.643 203.182 310.867 197.121C312.286 196.48 313.724 195.702 315.133 194.759C318.32 192.617 321.359 189.614 323.877 185.622C326.413 181.63 328.445 176.669 329.819 170.553C330.203 168.85 330.395 167.165 330.395 165.499C330.395 162.029 329.571 158.724 328.198 155.758C327.246 153.707 326.019 151.821 324.609 150.118C325.332 147.444 326.211 143.855 326.99 139.644C328.07 133.803 328.967 126.799 328.967 119.429C328.967 114.669 328.592 109.752 327.621 104.9C326.898 101.265 325.836 97.6584 324.326 94.1973C322.073 88.9971 318.805 84.108 314.236 80.0797C310.016 76.335 304.724 73.3596 298.343 71.4371C295.642 68.2145 292.85 65.4676 289.966 63.1789C285.113 59.2971 280.005 56.7154 274.786 55.1404C269.587 53.5678 264.304 53 259.049 53C256.275 53 253.5 53.1646 250.727 53.4031C248.126 53.641 245.956 53.9158 244.025 54.2363C241.141 54.7215 238.761 55.3625 236.453 56.1682C234.137 56.9645 231.903 57.8896 228.992 59.0428C227.884 59.4729 226.428 60.1232 224.671 61.0021C221.604 62.5496 217.667 64.8289 213.446 67.9783C207.111 72.7021 200.134 79.3672 194.678 88.3941C191.959 92.917 189.624 98.007 187.995 103.72C186.347 109.423 185.395 115.732 185.395 122.626C185.395 126.92 185.761 131.461 186.566 136.203C186.566 136.551 186.585 136.853 186.603 137.173C186.64 137.769 186.695 138.382 186.759 139.023C186.86 139.975 186.97 140.945 187.062 141.77C187.098 142.181 187.135 142.548 187.153 142.832C187.171 142.978 187.18 143.097 187.18 143.18L187.19 143.281V143.308V143.858L188.352 149.022C186.677 150.853 185.23 152.904 184.104 155.146C182.539 158.268 181.605 161.784 181.614 165.519C181.605 167.168 181.797 168.852 182.182 170.555C183.106 174.638 184.315 178.209 185.761 181.312C187.94 185.972 190.696 189.607 193.754 192.326C196.116 194.45 198.643 195.988 201.142 197.142C203.367 203.175 205.592 208.284 207.936 212.651C210.279 217.009 212.742 220.634 215.452 223.692C216.368 227.977 217.081 232.188 217.081 237.022C217.081 238.671 216.999 240.373 216.807 242.204C216.623 243.962 216.23 245.482 215.68 246.856C214.847 248.906 213.63 250.646 211.973 252.294C210.324 253.923 208.219 255.453 205.72 256.872C203.184 258.3 200.254 259.637 197.059 260.928C191.474 263.189 185.102 265.331 178.638 267.913C173.795 269.845 168.897 272.042 164.209 274.798C160.703 276.867 157.325 279.247 154.23 282.086C149.579 286.352 145.57 291.653 142.804 298.217C140.021 304.791 138.483 312.573 138.483 321.755C138.483 323.046 138.758 324.291 139.197 325.427C139.619 326.498 140.187 327.478 140.864 328.412C142.146 330.151 143.794 331.698 145.817 333.2C149.351 335.809 154.066 338.263 160.163 340.561C169.291 344.013 181.54 347.089 197.37 349.35C213.199 351.59 232.608 353 256 353C276.288 353 293.564 351.947 308.121 350.199C319.034 348.89 328.418 347.196 336.383 345.246C342.353 343.79 347.525 342.197 351.974 340.512C355.307 339.249 358.218 337.931 360.754 336.576C362.658 335.568 364.343 334.525 365.835 333.454C368.06 331.842 369.854 330.167 371.219 328.281C371.896 327.347 372.454 326.34 372.867 325.241C373.279 324.161 373.517 322.971 373.517 321.753C373.517 315.464 372.803 309.842 371.457 304.816ZM297.675 263.004L268.341 308.798L265.081 286.322L273.395 277.505L268.002 268.533L290.753 256.567C291.385 257.373 292.053 258.151 292.758 258.874C294.26 260.422 295.917 261.777 297.675 263.004ZM216.568 208.017C214.27 203.751 211.981 198.423 209.638 191.794L208.868 189.633L206.707 188.827C205.206 188.278 203.75 187.573 202.349 186.63C200.243 185.211 198.229 183.279 196.398 180.386C194.567 177.502 192.91 173.63 191.729 168.393C191.509 167.404 191.399 166.452 191.399 165.518C191.409 163.422 191.912 161.435 192.864 159.522C193.652 157.947 194.759 156.455 196.087 155.1C198.339 158.506 200.198 161.197 200.875 161.875C203.082 164.072 203.393 158.881 202.349 153.049C200.408 142.337 205.618 147.18 218.847 121.463C245.287 127.341 291.503 99.234 291.503 99.234C291.503 99.234 292.062 112.051 300.878 123.807C309.247 134.967 314.008 161.142 314.008 161.142C314.008 161.142 315.143 158.981 316.837 156.089C317.853 157.279 318.695 158.561 319.318 159.897C320.151 161.683 320.6 163.559 320.6 165.501C320.6 166.435 320.489 167.405 320.27 168.394C319.482 171.882 318.484 174.766 317.368 177.165C315.692 180.736 313.751 183.208 311.737 185.02C309.705 186.833 307.553 188.005 305.31 188.829L303.149 189.616L302.38 191.795C300.027 198.424 297.738 203.752 295.44 208.027C293.142 212.303 290.853 215.507 288.482 218.016L287.548 219.005L287.255 220.341C286.184 225.23 285.131 230.632 285.131 237.022C285.131 239 285.232 241.051 285.452 243.212C285.717 245.757 286.294 248.137 287.164 250.334C287.209 250.445 287.255 250.536 287.301 250.646L257.538 266.281L224.561 250.992C225.577 248.611 226.264 246.011 226.548 243.21C226.777 241.049 226.868 238.998 226.868 237.021C226.878 230.63 225.815 225.211 224.744 220.321L224.461 219.003L223.518 218.014C221.155 215.497 218.857 212.292 216.568 208.017ZM216.303 261.539C218.015 260.165 219.608 258.618 221 256.887L246.149 268.561L240.775 277.505L249.097 286.322L246.021 307.489L213.931 263.278C214.746 262.72 215.534 262.143 216.303 261.539ZM363.474 322.256C363.144 322.806 362.375 323.721 361.084 324.765C359.949 325.681 358.438 326.687 356.525 327.731C353.184 329.562 348.643 331.476 342.884 333.28C334.232 336.008 322.825 338.498 308.423 340.293C294.031 342.087 276.645 343.204 256 343.204C236.06 343.204 219.159 342.161 205.051 340.476C194.467 339.204 185.468 337.565 177.942 335.734C172.302 334.36 167.505 332.859 163.504 331.348C160.501 330.204 157.956 329.05 155.859 327.942C154.284 327.1 152.966 326.267 151.886 325.498C150.284 324.344 149.249 323.301 148.746 322.578C148.489 322.221 148.362 321.964 148.306 321.818C148.288 321.763 148.279 321.726 148.279 321.717C148.279 316.233 148.902 311.546 149.973 307.462C150.916 303.891 152.216 300.797 153.791 298.06C156.556 293.271 160.181 289.5 164.484 286.331C167.716 283.951 171.314 281.909 175.141 280.088C180.872 277.36 187.08 275.144 193.177 272.901C198.304 271.006 203.348 269.101 207.99 266.758L258.674 336.594L303.571 266.519C305.814 267.673 308.149 268.735 310.547 269.724C316.571 272.196 322.989 274.329 329.178 276.792C333.82 278.623 338.343 280.628 342.445 283.017C345.53 284.812 348.387 286.808 350.922 289.106C354.749 292.558 357.862 296.64 360.115 301.878C362.349 307.115 363.722 313.541 363.722 321.726C363.712 321.762 363.648 321.963 363.474 322.256Z" fill="#931A1A"/>
<path d="M331.879 316.196H292.694V323.063H331.879V316.196Z" fill="#931A1A"/>
<g clip-path="url(#clip1_1_2)">
<path d="M274.605 196.322C274.286 196.193 273.94 196.119 273.573 196.119C273.206 196.119 272.86 196.193 272.54 196.322C272.221 196.457 271.929 196.646 271.691 196.889L271.671 196.903C271.535 197.038 271.406 197.193 271.304 197.362C271.25 197.45 271.195 197.544 271.148 197.646H266.862V193.944C266.203 194.248 265.517 194.478 264.817 194.62C264.695 194.647 264.58 194.667 264.457 194.687V198.834C264.457 199.165 264.593 199.463 264.811 199.679C265.028 199.895 265.327 200.03 265.66 200.03H271.189C271.229 200.111 271.277 200.192 271.331 200.273C271.426 200.415 271.535 200.55 271.657 200.672L271.678 200.692C271.922 200.935 272.221 201.138 272.554 201.273C272.873 201.401 273.22 201.475 273.586 201.475C273.94 201.475 274.286 201.408 274.598 201.28L274.619 201.273C274.952 201.138 275.244 200.935 275.495 200.692C275.74 200.449 275.943 200.152 276.079 199.821C276.208 199.503 276.283 199.159 276.283 198.794C276.283 198.436 276.208 198.091 276.079 197.767C275.943 197.436 275.74 197.139 275.495 196.896C275.237 196.659 274.938 196.457 274.605 196.322ZM255.009 170.992H249.983L249.263 173.343H244.739L250.139 159.077H254.989L260.368 173.343H255.729L255.009 170.992ZM254.072 167.899L252.503 162.772L250.927 167.899H254.072ZM261.618 159.07H266.067V173.336H261.618V159.07ZM258.229 144.447C257.495 144.974 256.816 145.683 256.225 146.601C256.198 146.649 256.157 146.689 256.109 146.716C255.926 146.831 255.682 146.777 255.566 146.601C254.975 145.683 254.296 144.974 253.562 144.447C252.774 143.879 251.925 143.521 251.049 143.346H251.035C250.18 143.17 249.303 143.17 248.461 143.319C247.571 143.474 246.709 143.798 245.934 144.244C245.167 144.69 244.474 145.264 243.897 145.926C243.34 146.568 242.891 147.304 242.599 148.094C242.552 148.216 242.511 148.344 242.47 148.479C242.436 148.601 242.395 148.736 242.368 148.871C242.334 149.047 242.185 149.175 241.995 149.182C241.085 149.317 240.181 149.648 239.339 150.141C238.483 150.647 237.688 151.336 237.002 152.16C236.323 152.984 235.752 153.957 235.345 155.038C234.965 156.051 234.734 157.166 234.686 158.348C234.679 158.503 234.679 158.652 234.679 158.807C234.679 158.949 234.686 159.097 234.686 159.253C234.693 159.381 234.638 159.516 234.523 159.597C233.966 159.996 233.463 160.408 233.015 160.833C232.56 161.272 232.159 161.725 231.813 162.191C231.249 162.954 230.835 163.751 230.556 164.555C230.264 165.393 230.122 166.25 230.108 167.095C230.101 167.905 230.21 168.709 230.441 169.486C230.672 170.276 231.025 171.046 231.48 171.762C231.738 172.174 232.03 172.579 232.349 172.958C232.675 173.343 233.029 173.707 233.409 174.052C233.504 174.14 233.558 174.282 233.531 174.417C233.423 174.93 233.368 175.437 233.348 175.936C233.334 176.45 233.362 176.956 233.429 177.449C233.558 178.355 233.823 179.219 234.197 180.016C234.591 180.867 235.107 181.644 235.705 182.326C236.282 182.995 236.941 183.576 237.648 184.055C238.361 184.542 239.115 184.92 239.889 185.183C240.235 185.298 240.589 185.393 240.949 185.46C241.288 185.528 241.628 185.568 241.961 185.582C242.144 185.575 242.314 185.704 242.355 185.893C242.531 186.696 242.857 187.453 243.306 188.135C243.774 188.851 244.365 189.486 245.045 190.013C245.9 190.675 246.906 191.175 247.965 191.438C248.964 191.688 250.017 191.735 251.049 191.519C251.973 191.33 252.869 190.938 253.698 190.317C254.459 189.743 255.165 188.973 255.756 187.973C255.79 187.912 255.845 187.865 255.912 187.831C256.103 187.73 256.34 187.804 256.442 187.993C256.931 188.898 257.529 189.621 258.195 190.168C258.915 190.756 259.709 191.154 260.545 191.384C261.611 191.675 262.725 191.675 263.805 191.452C264.96 191.215 266.074 190.715 267.032 190.026C267.786 189.493 268.451 188.838 268.981 188.095C269.484 187.399 269.857 186.622 270.075 185.805C270.102 185.649 270.224 185.514 270.394 185.487C271.392 185.312 272.377 184.9 273.281 184.285C274.184 183.67 275.006 182.86 275.678 181.894C276.297 181.002 276.792 179.976 277.112 178.854C277.411 177.807 277.553 176.673 277.506 175.477C277.492 175.342 277.553 175.207 277.675 175.126C278.26 174.727 278.776 174.309 279.238 173.883C279.706 173.437 280.121 172.978 280.474 172.498C281.017 171.769 281.418 171.012 281.697 170.236C281.982 169.432 282.131 168.615 282.158 167.797C282.179 167.007 282.084 166.223 281.88 165.453C281.676 164.677 281.357 163.927 280.943 163.218L280.929 163.204C280.657 162.738 280.338 162.292 279.985 161.86C279.632 161.428 279.231 161.022 278.803 160.637C278.701 160.55 278.647 160.408 278.674 160.266C278.769 159.8 278.83 159.334 278.851 158.874C278.871 158.408 278.857 157.949 278.81 157.497C278.708 156.558 278.457 155.666 278.09 154.835C277.703 153.957 277.186 153.147 276.582 152.437C275.998 151.748 275.325 151.147 274.605 150.647C273.885 150.148 273.118 149.756 272.337 149.492L272.316 149.486C271.902 149.344 271.481 149.242 271.066 149.175H271.053C270.645 149.107 270.238 149.08 269.837 149.087C269.654 149.101 269.477 148.979 269.429 148.79C269.362 148.513 269.273 148.243 269.171 147.979C269.063 147.709 268.94 147.446 268.798 147.182C268.431 146.507 267.949 145.885 267.385 145.352C266.808 144.805 266.149 144.339 265.442 143.981C264.715 143.616 263.921 143.359 263.106 143.244C262.331 143.136 261.537 143.15 260.755 143.312C259.879 143.521 259.017 143.879 258.229 144.447ZM269.334 152.052C269.382 151.904 269.518 151.789 269.688 151.775C269.973 151.755 270.265 151.769 270.557 151.816C270.856 151.863 271.155 151.938 271.454 152.039C272.017 152.228 272.581 152.518 273.104 152.883C273.62 153.241 274.109 153.68 274.531 154.18L274.537 154.194C274.979 154.714 275.352 155.295 275.631 155.929C275.896 156.524 276.072 157.159 276.147 157.827C276.195 158.273 276.195 158.739 276.14 159.212C276.093 159.651 275.991 160.104 275.835 160.556L275.828 160.583C275.733 160.867 275.74 161.164 275.828 161.428C275.923 161.698 276.1 161.941 276.351 162.103L276.371 162.117C276.847 162.468 277.268 162.853 277.635 163.258C278.015 163.67 278.341 164.116 278.613 164.575C278.912 165.082 279.143 165.609 279.285 166.149C279.435 166.683 279.503 167.223 279.482 167.757C279.469 168.311 279.36 168.864 279.163 169.412C278.973 169.932 278.694 170.445 278.328 170.945L278.321 170.952C277.988 171.404 277.567 171.85 277.071 172.275C276.595 172.681 276.045 173.066 275.414 173.437L275.393 173.451C275.142 173.593 274.958 173.809 274.85 174.059C274.741 174.309 274.707 174.586 274.762 174.856L274.768 174.91C274.897 175.943 274.836 176.929 274.626 177.828C274.395 178.807 273.994 179.685 273.471 180.435C273.07 181.009 272.608 181.502 272.112 181.894C271.603 182.299 271.053 182.596 270.489 182.779H270.482C270.278 182.84 270.054 182.725 269.993 182.522C269.226 180.03 267.901 179.226 265.66 178.078L265.612 178.051C265.3 177.902 264.96 177.889 264.654 177.983C264.349 178.078 264.084 178.287 263.928 178.591L263.907 178.632C263.758 178.942 263.744 179.28 263.839 179.584C263.941 179.888 264.158 180.158 264.471 180.32C266.346 181.273 267.731 181.995 267.711 184.332C267.704 185.028 267.487 185.704 267.12 186.311C266.733 186.953 266.176 187.527 265.531 187.993C264.872 188.466 264.131 188.811 263.371 188.979C262.644 189.148 261.897 189.155 261.197 188.966C260.015 188.642 259.248 187.858 258.731 186.906C258.242 186.001 257.971 184.947 257.774 183.988C257.76 183.954 257.76 183.914 257.76 183.88C257.76 183.393 257.38 183.076 256.884 182.934C256.666 182.867 256.429 182.84 256.198 182.84C255.96 182.84 255.729 182.873 255.512 182.934C255.023 183.083 254.642 183.4 254.642 183.88C254.642 183.914 254.635 183.941 254.629 183.974C254.248 185.474 253.698 186.602 253.053 187.412C252.299 188.365 251.416 188.885 250.506 189.074C249.84 189.209 249.154 189.175 248.502 189.007C247.816 188.824 247.164 188.493 246.593 188.061C246.029 187.622 245.561 187.088 245.235 186.487C244.922 185.913 244.739 185.278 244.739 184.63C244.739 182.171 246.233 181.347 248.21 180.34C248.522 180.178 248.74 179.908 248.842 179.604C248.943 179.293 248.923 178.949 248.767 178.632C248.604 178.321 248.332 178.105 248.026 178.003C247.721 177.909 247.381 177.922 247.069 178.071L247.048 178.078C244.718 179.26 243.326 180.124 242.491 182.698C242.443 182.867 242.28 182.995 242.097 182.988C241.866 182.981 241.635 182.954 241.397 182.907C241.166 182.86 240.935 182.799 240.718 182.718C240.168 182.529 239.617 182.252 239.101 181.901C238.592 181.549 238.116 181.131 237.695 180.644C237.26 180.145 236.887 179.584 236.602 178.969C236.33 178.395 236.14 177.78 236.045 177.139V177.125C235.977 176.652 235.963 176.159 236.017 175.653C236.065 175.18 236.167 174.687 236.337 174.201L236.343 174.18C236.438 173.903 236.432 173.613 236.35 173.356L236.343 173.343C236.255 173.073 236.078 172.836 235.834 172.667L235.82 172.654C235.386 172.33 234.992 171.985 234.645 171.607C234.292 171.229 233.98 170.823 233.722 170.404C233.409 169.898 233.165 169.358 233.002 168.804C232.845 168.263 232.764 167.709 232.771 167.142C232.777 166.568 232.879 165.98 233.083 165.406C233.28 164.859 233.565 164.312 233.959 163.778C234.292 163.326 234.7 162.88 235.189 162.454C235.657 162.042 236.187 161.651 236.798 161.279C237.023 161.144 237.186 160.955 237.294 160.739L237.301 160.718C237.41 160.496 237.451 160.246 237.417 159.996C237.41 159.969 237.41 159.942 237.41 159.915V159.901C237.376 159.665 237.355 159.428 237.342 159.199C237.328 158.949 237.328 158.699 237.335 158.456C237.369 157.571 237.539 156.74 237.817 155.99C238.116 155.186 238.537 154.464 239.04 153.849C239.454 153.342 239.93 152.917 240.426 152.586C240.922 152.255 241.445 152.019 241.981 151.883C242.185 151.823 242.409 151.938 242.47 152.14C242.891 153.464 243.421 154.295 244.433 155.234L244.474 155.267C244.725 155.497 245.051 155.605 245.371 155.592C245.69 155.578 246.002 155.45 246.233 155.2L246.254 155.173C246.485 154.923 246.593 154.599 246.58 154.281C246.566 153.964 246.43 153.646 246.172 153.403C245.357 152.653 245.174 152.187 244.929 151.431C244.644 150.56 244.691 149.708 244.97 148.952C245.16 148.432 245.459 147.946 245.839 147.52C246.213 147.094 246.668 146.716 247.171 146.426L247.191 146.412C247.707 146.115 248.264 145.899 248.842 145.791C249.392 145.69 249.955 145.683 250.506 145.798C251.28 145.96 252.041 146.365 252.713 147.067C253.304 147.682 253.827 148.533 254.242 149.654L254.248 149.668C254.391 150.107 254.853 150.364 255.396 150.465C255.641 150.512 255.899 150.526 256.15 150.512H256.157C256.415 150.499 256.66 150.451 256.891 150.377C257.298 150.242 257.617 150.026 257.692 149.749V149.594C257.692 148.81 258.161 147.979 258.806 147.297C259.512 146.554 260.457 145.966 261.251 145.804C261.754 145.703 262.263 145.696 262.759 145.771C263.275 145.852 263.778 146.014 264.254 146.25L264.294 146.264C264.777 146.507 265.218 146.818 265.605 147.182C265.986 147.547 266.312 147.959 266.556 148.412C266.943 149.121 267.12 149.931 266.998 150.789C266.889 151.539 266.862 152.012 266.23 152.762L266.223 152.768C265.999 153.032 265.904 153.363 265.931 153.687C265.958 153.998 266.101 154.302 266.352 154.518L266.393 154.552C266.658 154.768 266.984 154.855 267.303 154.828C267.616 154.801 267.922 154.66 268.139 154.41L268.173 154.362C268.825 153.592 269.035 153.025 269.334 152.052ZM284.251 185.109C284.122 184.792 284.047 184.447 284.047 184.082C284.047 183.718 284.122 183.373 284.251 183.056C284.386 182.738 284.577 182.448 284.821 182.211L284.835 182.191C284.971 182.056 285.127 181.928 285.297 181.826C285.385 181.772 285.48 181.718 285.582 181.671V177.409H280.311C280.318 177.132 280.318 176.855 280.304 176.571C280.291 176.416 280.358 176.261 280.494 176.173C281.038 175.801 281.534 175.416 281.982 175.018H286.777C287.11 175.018 287.409 175.153 287.626 175.369C287.844 175.585 287.98 175.882 287.98 176.213V181.712C288.061 181.752 288.143 181.799 288.224 181.853C288.367 181.948 288.503 182.056 288.625 182.178L288.645 182.198C288.89 182.441 289.094 182.738 289.229 183.069C289.358 183.387 289.433 183.731 289.433 184.096C289.433 184.447 289.365 184.785 289.236 185.102L289.229 185.123C289.094 185.454 288.89 185.744 288.645 185.994C288.401 186.237 288.102 186.44 287.769 186.575C287.45 186.703 287.103 186.778 286.737 186.778C286.377 186.778 286.03 186.703 285.704 186.575C285.371 186.44 285.072 186.237 284.828 185.994C284.59 185.737 284.386 185.44 284.251 185.109ZM291.885 171.431H284.719C284.842 171.168 284.95 170.904 285.045 170.634C285.235 170.107 285.371 169.574 285.453 169.04H291.885C291.933 168.952 291.98 168.864 292.035 168.777C292.137 168.615 292.259 168.466 292.388 168.338C292.639 168.088 292.931 167.892 293.264 167.757C293.583 167.628 293.93 167.554 294.297 167.554C294.65 167.554 294.989 167.622 295.309 167.75L295.329 167.757C295.662 167.892 295.954 168.094 296.205 168.338C296.45 168.581 296.654 168.878 296.789 169.209C296.918 169.526 296.993 169.871 296.993 170.236C296.993 170.594 296.918 170.938 296.789 171.262C296.654 171.593 296.45 171.89 296.205 172.134C295.961 172.377 295.662 172.579 295.329 172.715C295.01 172.843 294.663 172.917 294.297 172.917C293.943 172.917 293.604 172.85 293.285 172.721L293.264 172.715C292.931 172.579 292.639 172.377 292.388 172.134C292.259 172.005 292.143 171.863 292.042 171.708L292.028 171.688C291.98 171.607 291.933 171.519 291.885 171.431ZM294.168 164.893H285.154C284.923 164.136 284.597 163.4 284.189 162.698L284.176 162.677C284.142 162.616 284.108 162.562 284.074 162.502H292.972V154.7C292.904 154.66 292.836 154.619 292.768 154.572C292.632 154.477 292.51 154.376 292.395 154.261C292.15 154.018 291.946 153.721 291.811 153.39C291.682 153.072 291.607 152.728 291.607 152.363C291.607 152.005 291.682 151.654 291.811 151.336C291.946 151.005 292.15 150.715 292.395 150.465C292.639 150.222 292.938 150.019 293.271 149.884C293.59 149.756 293.937 149.681 294.303 149.681C294.663 149.681 295.01 149.756 295.336 149.884C295.669 150.019 295.968 150.222 296.212 150.465C296.457 150.708 296.66 151.005 296.796 151.336C296.925 151.654 297 151.998 297 152.363C297 152.714 296.932 153.052 296.803 153.369L296.796 153.39C296.66 153.721 296.457 154.011 296.212 154.261C296.063 154.41 295.886 154.545 295.703 154.66C295.601 154.72 295.485 154.781 295.377 154.828V163.69C295.377 164.021 295.241 164.319 295.023 164.535C294.799 164.758 294.5 164.893 294.168 164.893ZM284.746 159.124H281.676C281.758 158.679 281.805 158.233 281.826 157.787C281.839 157.429 281.839 157.078 281.819 156.733H283.544V153.207C283.449 153.16 283.361 153.113 283.272 153.052C283.109 152.951 282.96 152.829 282.817 152.687C282.573 152.444 282.369 152.147 282.233 151.816C282.104 151.498 282.029 151.154 282.029 150.796C282.029 150.438 282.104 150.094 282.233 149.769C282.369 149.452 282.559 149.161 282.797 148.918L282.817 148.898C283.062 148.655 283.361 148.452 283.694 148.317C284.013 148.189 284.359 148.114 284.726 148.114C285.093 148.114 285.439 148.189 285.758 148.317C286.078 148.452 286.37 148.641 286.614 148.884L286.635 148.898C286.879 149.141 287.076 149.425 287.212 149.749L287.219 149.769C287.348 150.087 287.423 150.431 287.423 150.796C287.423 151.154 287.348 151.505 287.219 151.823C287.083 152.14 286.893 152.431 286.655 152.674L286.635 152.694C286.506 152.822 286.363 152.937 286.2 153.045C286.118 153.099 286.037 153.147 285.949 153.187V157.929C285.949 158.26 285.813 158.557 285.595 158.773C285.378 158.989 285.072 159.124 284.746 159.124ZM237.145 138.678C237.464 138.807 237.811 138.881 238.177 138.881C238.544 138.881 238.891 138.807 239.21 138.678C239.529 138.543 239.821 138.354 240.059 138.111L240.079 138.097C240.215 137.962 240.344 137.807 240.446 137.638C240.5 137.55 240.555 137.456 240.602 137.354H244.888V141.036C245.642 140.637 246.457 140.347 247.293 140.178V136.159C247.293 135.828 247.157 135.531 246.94 135.315C246.722 135.098 246.423 134.963 246.091 134.963H240.562C240.521 134.882 240.473 134.801 240.419 134.72C240.324 134.578 240.215 134.443 240.093 134.322L240.072 134.301C239.828 134.058 239.529 133.856 239.196 133.72C238.877 133.592 238.531 133.518 238.164 133.518C237.811 133.518 237.464 133.585 237.152 133.714L237.131 133.72C236.798 133.856 236.506 134.058 236.255 134.301C236.011 134.545 235.807 134.842 235.671 135.173C235.542 135.49 235.467 135.835 235.467 136.199C235.467 136.557 235.542 136.902 235.671 137.226C235.807 137.557 236.011 137.854 236.255 138.097C236.52 138.341 236.812 138.543 237.145 138.678ZM250.906 131.086V140.313C251.708 140.543 252.489 140.907 253.223 141.434L253.304 141.495C253.304 141.475 253.311 141.454 253.311 141.434V131.086C253.399 131.039 253.488 130.992 253.576 130.938C253.739 130.836 253.888 130.715 254.017 130.586C254.262 130.336 254.466 130.046 254.602 129.715C254.731 129.398 254.805 129.053 254.805 128.688C254.805 128.337 254.737 127.999 254.608 127.682L254.602 127.662C254.466 127.331 254.262 127.04 254.017 126.79C253.773 126.547 253.474 126.344 253.141 126.209C252.822 126.081 252.475 126.007 252.109 126.007C251.749 126.007 251.402 126.081 251.076 126.209C250.743 126.344 250.445 126.547 250.2 126.79C249.955 127.033 249.752 127.331 249.616 127.662C249.487 127.979 249.412 128.324 249.412 128.688C249.412 129.04 249.48 129.377 249.609 129.695L249.616 129.715C249.752 130.046 249.955 130.336 250.2 130.586C250.329 130.715 250.472 130.83 250.628 130.931L250.642 130.938C250.73 130.992 250.811 131.039 250.906 131.086ZM257.475 128.817V142.312C257.801 141.981 258.147 141.691 258.5 141.434C258.942 141.117 259.404 140.853 259.879 140.651V130.005H267.725C267.765 130.073 267.806 130.141 267.854 130.208C267.949 130.343 268.051 130.465 268.166 130.58C268.411 130.823 268.709 131.025 269.042 131.16C269.362 131.289 269.708 131.363 270.075 131.363C270.435 131.363 270.788 131.289 271.107 131.16C271.44 131.025 271.739 130.823 271.983 130.58C272.228 130.336 272.432 130.039 272.568 129.708C272.697 129.391 272.771 129.046 272.771 128.682C272.771 128.324 272.697 127.979 272.568 127.655C272.432 127.324 272.228 127.027 271.983 126.784C271.725 126.54 271.426 126.338 271.094 126.203C270.774 126.074 270.428 126 270.068 126C269.715 126 269.375 126.068 269.056 126.196L269.035 126.203C268.703 126.338 268.411 126.54 268.159 126.784C268.01 126.932 267.874 127.108 267.758 127.29C267.697 127.391 267.636 127.506 267.589 127.614H258.677C258.344 127.614 258.045 127.749 257.828 127.966C257.611 128.188 257.475 128.486 257.475 128.817ZM263.275 138.185V140.036C263.52 140.049 263.771 140.07 264.016 140.11C264.586 140.191 265.143 140.333 265.68 140.529V139.388H269.226C269.273 139.482 269.321 139.57 269.382 139.658C269.484 139.82 269.606 139.968 269.749 140.11C269.993 140.353 270.292 140.556 270.625 140.691C270.944 140.819 271.291 140.894 271.651 140.894C272.011 140.894 272.357 140.819 272.683 140.691C273.002 140.556 273.294 140.367 273.539 140.131L273.559 140.11C273.804 139.867 274.008 139.57 274.143 139.239C274.272 138.921 274.347 138.577 274.347 138.212C274.347 137.847 274.272 137.503 274.143 137.186C274.008 136.868 273.817 136.578 273.573 136.334L273.559 136.314C273.315 136.071 273.029 135.875 272.703 135.74L272.683 135.733C272.364 135.605 272.017 135.531 271.651 135.531C271.291 135.531 270.937 135.605 270.618 135.733C270.299 135.868 270.007 136.058 269.762 136.294L269.742 136.314C269.613 136.443 269.497 136.584 269.389 136.747C269.334 136.828 269.287 136.909 269.246 136.996H264.478C264.145 136.996 263.846 137.132 263.629 137.348C263.411 137.557 263.275 137.854 263.275 138.185ZM228.749 149.776C228.878 150.094 228.953 150.438 228.953 150.803C228.953 151.167 228.878 151.512 228.749 151.829C228.614 152.147 228.423 152.437 228.179 152.674L228.165 152.694C228.029 152.829 227.873 152.957 227.703 153.059C227.615 153.113 227.52 153.167 227.418 153.214V157.476H231.867V157.686C231.867 157.848 231.874 158.017 231.881 158.192C231.894 158.341 231.826 158.489 231.697 158.584C231.113 158.996 230.59 159.428 230.115 159.867H226.229C225.897 159.867 225.598 159.732 225.38 159.516C225.163 159.3 225.027 159.003 225.027 158.672V153.174C224.946 153.133 224.864 153.086 224.783 153.032C224.64 152.937 224.504 152.829 224.382 152.708L224.362 152.687C224.117 152.444 223.913 152.147 223.777 151.816C223.648 151.498 223.574 151.154 223.574 150.789C223.574 150.438 223.642 150.1 223.771 149.783L223.777 149.763C223.913 149.432 224.117 149.141 224.362 148.891C224.606 148.648 224.905 148.445 225.238 148.31C225.557 148.182 225.903 148.108 226.27 148.108C226.63 148.108 226.977 148.182 227.303 148.31C227.635 148.445 227.934 148.648 228.179 148.891C228.41 149.148 228.614 149.445 228.749 149.776ZM221.115 163.454H227.5C227.391 163.697 227.296 163.947 227.208 164.19C227.017 164.737 226.882 165.285 226.8 165.838H221.115C221.067 165.926 221.02 166.014 220.965 166.102C220.863 166.264 220.741 166.413 220.612 166.541C220.361 166.791 220.069 166.987 219.736 167.122C219.417 167.25 219.07 167.324 218.703 167.324C218.35 167.324 218.011 167.257 217.691 167.129L217.671 167.122C217.338 166.987 217.046 166.784 216.795 166.541C216.55 166.298 216.346 166 216.211 165.67C216.082 165.352 216.007 165.008 216.007 164.643C216.007 164.285 216.082 163.94 216.211 163.616C216.346 163.285 216.55 162.988 216.795 162.745C217.039 162.502 217.338 162.299 217.671 162.164C217.99 162.036 218.337 161.961 218.703 161.961C219.057 161.961 219.396 162.029 219.715 162.157L219.736 162.164C220.069 162.299 220.361 162.502 220.612 162.745C220.741 162.873 220.857 163.015 220.958 163.17L220.972 163.191C221.02 163.278 221.067 163.366 221.115 163.454ZM218.832 169.992H227.14C227.398 170.81 227.771 171.6 228.247 172.35V172.357L228.26 172.384H220.028V180.185C220.096 180.226 220.164 180.266 220.232 180.313C220.368 180.408 220.49 180.509 220.605 180.624C220.85 180.867 221.054 181.164 221.189 181.495C221.318 181.813 221.393 182.157 221.393 182.522C221.393 182.88 221.318 183.231 221.189 183.549C221.054 183.88 220.85 184.17 220.605 184.42C220.361 184.663 220.062 184.866 219.729 185.001C219.41 185.129 219.063 185.204 218.697 185.204C218.337 185.204 217.99 185.129 217.664 185.001C217.331 184.866 217.032 184.663 216.788 184.42C216.543 184.157 216.34 183.86 216.204 183.535C216.075 183.218 216 182.873 216 182.509C216 182.157 216.068 181.82 216.197 181.502L216.204 181.482C216.34 181.151 216.543 180.861 216.788 180.611C216.937 180.462 217.114 180.327 217.297 180.212C217.399 180.151 217.515 180.09 217.623 180.043V171.181C217.623 170.85 217.759 170.553 217.977 170.337C218.201 170.128 218.5 169.992 218.832 169.992ZM228.254 175.761H230.495C230.42 176.207 230.38 176.646 230.366 177.078C230.352 177.443 230.359 177.801 230.386 178.152H229.456V181.678C229.551 181.725 229.639 181.772 229.728 181.833C229.891 181.934 230.04 182.056 230.183 182.198C230.427 182.441 230.631 182.738 230.767 183.069C230.896 183.387 230.971 183.731 230.971 184.096C230.971 184.461 230.896 184.798 230.767 185.123C230.631 185.44 230.441 185.731 230.203 185.974L230.183 185.994C229.938 186.237 229.639 186.44 229.306 186.575C228.987 186.703 228.641 186.778 228.274 186.778C227.907 186.778 227.561 186.703 227.242 186.575C226.922 186.44 226.63 186.251 226.386 186.007L226.365 185.994C226.121 185.751 225.924 185.467 225.788 185.143L225.781 185.123C225.652 184.805 225.577 184.461 225.577 184.096C225.577 183.738 225.652 183.387 225.781 183.069C225.917 182.752 226.107 182.461 226.345 182.218L226.365 182.198C226.494 182.07 226.637 181.955 226.8 181.847C226.882 181.793 226.963 181.745 227.051 181.705V176.963C227.051 176.632 227.187 176.335 227.405 176.119C227.622 175.889 227.921 175.761 228.254 175.761ZM260.851 203.914V194.464C260.002 194.201 259.2 193.775 258.466 193.174L258.453 193.161V203.921C258.365 203.968 258.276 204.015 258.188 204.069C258.025 204.17 257.875 204.292 257.746 204.42C257.502 204.67 257.298 204.961 257.162 205.292C257.033 205.609 256.958 205.954 256.958 206.318C256.958 206.67 257.026 207.007 257.155 207.325L257.162 207.345C257.298 207.676 257.502 207.967 257.746 208.216C257.991 208.46 258.29 208.662 258.623 208.797C258.942 208.926 259.288 209 259.655 209C260.015 209 260.362 208.926 260.688 208.797C261.02 208.662 261.319 208.46 261.564 208.216C261.808 207.973 262.012 207.676 262.148 207.345C262.277 207.028 262.352 206.683 262.352 206.318C262.352 205.967 262.284 205.629 262.155 205.312L262.148 205.292C262.012 204.961 261.808 204.67 261.564 204.42C261.435 204.292 261.292 204.177 261.136 204.076L261.115 204.062C261.027 204.008 260.939 203.961 260.851 203.914ZM254.275 206.183V192.566C253.99 192.857 253.691 193.113 253.379 193.35C252.897 193.714 252.394 194.005 251.871 194.235V205.001H244.026C243.985 204.934 243.944 204.866 243.897 204.799C243.802 204.664 243.7 204.542 243.584 204.427C243.34 204.184 243.041 203.981 242.708 203.846C242.389 203.718 242.042 203.644 241.675 203.644C241.315 203.644 240.962 203.718 240.643 203.846C240.31 203.981 240.018 204.184 239.767 204.427C239.522 204.67 239.318 204.968 239.183 205.299C239.054 205.616 238.979 205.96 238.979 206.325C238.979 206.683 239.054 207.028 239.183 207.352C239.318 207.683 239.522 207.98 239.767 208.223C240.011 208.466 240.31 208.669 240.643 208.804C240.962 208.932 241.309 209.007 241.675 209.007C242.029 209.007 242.368 208.939 242.688 208.811L242.708 208.804C243.041 208.669 243.333 208.466 243.584 208.223C243.734 208.075 243.869 207.899 243.985 207.717C244.046 207.615 244.107 207.5 244.155 207.392H253.066C253.399 207.392 253.698 207.257 253.915 207.041C254.14 206.812 254.275 206.514 254.275 206.183ZM248.475 196.815V194.849C247.945 194.822 247.415 194.741 246.899 194.613C246.62 194.545 246.342 194.457 246.07 194.363V195.626H242.525C242.477 195.531 242.429 195.444 242.368 195.356C242.266 195.194 242.144 195.045 242.002 194.903C241.757 194.66 241.458 194.457 241.125 194.322C240.806 194.194 240.46 194.12 240.1 194.12C239.74 194.12 239.393 194.194 239.067 194.322C238.748 194.457 238.456 194.647 238.211 194.883L238.191 194.896C237.946 195.14 237.743 195.437 237.607 195.768C237.478 196.085 237.403 196.43 237.403 196.795C237.403 197.159 237.478 197.504 237.607 197.821C237.743 198.139 237.933 198.429 238.177 198.672L238.191 198.693C238.435 198.936 238.721 199.132 239.047 199.267L239.067 199.273C239.386 199.402 239.733 199.476 240.1 199.476C240.46 199.476 240.806 199.402 241.132 199.273C241.451 199.138 241.743 198.949 241.988 198.713L242.008 198.693C242.137 198.564 242.253 198.422 242.362 198.26C242.416 198.179 242.463 198.098 242.504 198.01H247.272C247.605 198.01 247.904 197.875 248.122 197.659C248.339 197.443 248.475 197.146 248.475 196.815Z" fill="#2893EB"/>
</g>
<defs>
<clipPath id="clip0_1_2">
<rect width="455" height="153" fill="white" transform="translate(29 322)"/>
</clipPath>
<clipPath id="clip1_1_2">
<rect width="81" height="83" fill="white" transform="translate(216 126)"/>
</clipPath>
</defs>
</svg>
